<svg id="Layer_1" data-name="Layer 1" xmlns="http://www.w3.org/2000/svg" viewBox="0 0 1366 386.2"><defs><style>.cls-1{fill:#fcb5a7;}.cls-2{fill:#e96745;}</style></defs><title>slackin-background</title><path class="cls-1" d="M476.08,426.86c-2.46,2-5.3,3.25-7.75,5.13-3.54,2.72-4.75,6.9-7.4,10.27-2,2.54-4.7,5.8-7.7,7-3.35,1.38-6.61.6-9.58,3.18-2.15,1.86-2.76,4.53-4.62,6.57-1.35,1.47-3.36,2.42-5,3.59-3.46,2.52-5.48,5.78-8.48,8.58-4.24,3.93-16,2.06-16.09,10.27-6.12.3-11.9,5.7-14,11.15a35.71,35.71,0,0,0-4.82-1.44c-3.81-1.21-6.59-3.26-10-5.16-3.88-2.16-8.35-5.64-12.7-6.76-2-.52-9.82-2-11.57-.54-1.12.95-.18,4.14-2.14,5.08-1.75.85-2.13-.49-3.71-.73-4.33-.65-3,.17-7.29,2.73-3.57,2.12-5.51,2.4-7.86,5.79-2.54,3.68-6.84,18.94-12.49,18.13-1.33,3.48-3.39,6.72-2.53,11.57-2.68.15-7-1.16-9.25.75-1.07.9-1.58,3.87-3,6.39-1.49,2.72-3.86,5-4.56,6.45-1.58,3.19.37,6-2.46,8.45-3.52,3-7.64,4.12-11.76,6.39A93.17,93.17,0,0,0,275.74,559c-3.84,3.09-8.43,4.87-10.32,9.56-1,2.46-1.29,5.23-2.47,7.6-.7,1.42-2.57,3-2.68,4.64s1,2.75,1.7,4.06c-.85,2.5-2.46,2.45-4,4.49-1,1.37-.66,2.59-1.22,4.16-.67,1.84-1.79,3.16-2.25,5s-.35,4-1.06,5.88c-3.53,9.47-11.73,14.43-17.22,22.45-1.71-1.39-3.05-3.52-4.86-4.69a72.56,72.56,0,0,1-20.14,14.92c-17.65,9.21-30.71,25.12-47.2,36-7.46,4.92-14.67,10.59-22.11,15.51-2.75,1.82-6.3,4.6-10,6.65l1.11-.43c3.26-1.29,5.76-3.6,8.81-5.31,3.48-1.94,7.38-2.49,11-4.19,10.73-5,20.15-12.37,31-17.25,4.16-1.87,8.56-4.51,13-5.52,2.56-.58,5.54-.72,8.09-1.29-1.13,5.71,7.5-3.3,8.75-4.44,3.81-3.45,9.38-7.75,10.49-13.07,1.2.32,3-.05,4.08.48,1.77.82,2.7,3,4.05,4.08,2.81-5.81,7.78-11,11.14-16.58,1.11-1.86,2-4.85,3.38-6.45,1.28-1.43,3.52-2,5.08-3.22,3.2-2.53,5.2-3.45,7.4-7.17,1.82-3.06,3.24-6.12,6.15-7.06,4.8,4.46,10.26,9.66,10.84,16.42.45,5.27-.19,7.25,4,10.75,2.23,1.86,2.84,3.66,4.25,5.75,1.73-.13,4.13,1.44,5.88,3.42-1.95-2.92-2.52-7.39-3.8-10.75-2.3-6-4.51-11.93-6.51-18a82.65,82.65,0,0,1,4.66,11.6c4.1,12.9,13.94,23.07,17.07,36.29-2.21-7.83-2.72-16.13-4-24.15a220,220,0,0,1-2.91-26.46c-.19-5.49-.13-13.21,1.41-18.6,1.07-3.72,3.7-6.83,4.74-10.59.71-2.56.73-5.31,1.9-7.77,1-2,3-3.3,4-5,1.36-2.4,1.16-6.52,4.1-7.63,4,4.58,4.44,9.41,5.49,15,.64,3.36,2.53,6.45,3.35,9.88,1.16,4.8,2.64,9.51,3.76,14.32,1.32,5.67,1.72,11,4,16.4,2.53,6,6.89,9.75,10.69,15-2.85-4.78-3.05-10.65-3.45-16.08-1-13.46,1.73-28.93,9-40.45,2.77-4.37,6.18-4.71,7.06-10.25.53-3.34.48-6.11,2.26-9.23,1.13-2,2.9-2.49,3.94-3.78,3.91-4.85,1.48-13.39,7.07-17.76,4.49-3.52,6.17.37,8.94,3.78,3.67,4.52,7.36,8.33,10.41,13.31,2.62,4.26,6.64,7.41,8.67,12,1.32,3,2.1,6.46,3.21,9.59,1.54,4.39,2.85,8.79,4.55,13,.43,1.06.56,2,1.07,3.06,1.08,2.3,3.78,3.86,4.69,5.3,1.42,2.21,1.28,6,1.64,8.53.54,4,2,7.46,2.8,11.28A178.48,178.48,0,0,1,413,642.18c3.29-7.23,4.46-14.8,8.31-21.72,6.74-12.12,4.5-21.74,1.82-35.19-1.65-8.3-2.63-13.52-8.12-19.79-5.8-6.62-9.18-15.1-15-21.92-6-7.08-11.42-15.21-16.71-22.86-2.57-3.73-3.59-8.21-6-12-2.21-3.45-4.64-6.56-6.23-10.39,9.56,3.93,19.3,7.6,27.25,14.21,3.36,2.81,5.94,6,9.08,9,4.17,3.88,9.43,5.1,13.18,9.73,4.53,5.59,4.86,11.4,7.2,17.76,1.49,4.05,5.18,6.15,7.46,9.69s3.21,7.55,6,11c4.84,6.14,9.41,12.51,14.79,18.1-6.18-10.67-9-22.82-12.21-34.62-1.7-6.29-2-13-4.51-19.11-2.69-6.54-7.65-12.41-9.61-19.19,5.55,3.75,7.54,10,11.66,15.07,4.6,5.68,7.67,15,14.22,18.67-1.29-8.33-6.29-15.46-6.29-24.1,0-4-1-6.89-1.51-10.44-.75-4.83-.21-10.72-.37-15.76,1.39,1.24,5.44,2.07,7.29,2.52,2.4.57,6.66,1.86,9,1.82.26-4.85-.16-9.75.06-14.6.17-3.83,1.53-6.36,2.5-9.85.64-2.33.18-4.7.54-7.12.43-2.85,1.45-4.86,1.32-7.79-.11-2.54-1.26-5.16-1-7.69.27-2.9,2.34-5.22,3.15-8,1.18-4-1.23-8.06.63-11.59,1.69-3.2,6.09-5,5.86-9.34C475.58,426,476,426.26,476.08,426.86Z" transform="translate(0 -380.51)"/><path class="cls-1" d="M613.14,530.87c7,10.79,10.32,27.2,30.72,34.71-5.16-9.15-1.6-32.25-6.56-47.14-4.37-13.09,1.24-26.92-11.73-35.17.9-.46-5.4-6.57-4.45-6.8-3.76-11.46,5.13-13.41,8.67-22.51,1.19-3,8-3.73,9.15-7.74,1.37-4.72,4.25-11.39,3.75-16.18-.7-6.8,5.64-11.46,7-20,.73-4.42-.24-9.05.86-13.16,1.25-4.67,5.72-6.39,5-12.58-9.18,10.06-22.81,17.49-31.62,27.88-8.13,9.6-6.8,27.21-19,36.35-3.59-1.69-11.68,11.81-20.87,21.81-6.44,7-18,13.72-19.7,16.89-5.49,10.17-15.48,26.73-20.87,27.67-3.57.62-8.09-3.23-13-7.64-.61,6.54,5.18,9.49,6,16.31.23,2,10,12.42,13.17,17,9,13,11.45,16.1,12.39,29.7.47,3.51,5.3,10.65,6.79,10.46-3.12-10.11-3.73-29.77-9.6-37.66,4.92-2.82,9.18-5.71,13-10.35,3.33-4,6.39-15.35,10.66-18.73,9.48-7.51,15-12.43,15-12.43s7.41,1.86,9.15,11.49C608,518.11,608.35,523.52,613.14,530.87Z" transform="translate(0 -380.51)"/><path class="cls-1" d="M131.9,695.19a44.61,44.61,0,0,1-9.38,2.61C125.5,698.15,128.76,696.93,131.9,695.19Z" transform="translate(0 -380.51)"/><path class="cls-1" d="M246.23,495.1l.34-.23C246,494.57,245.43,494.34,246.23,495.1Z" transform="translate(0 -380.51)"/><path class="cls-1" d="M246.63,556.42c0,1.21-.06,2.42-.06,3.63A27.38,27.38,0,0,0,246.63,556.42Z" transform="translate(0 -380.51)"/><path class="cls-1" d="M182.46,560.44c2.66,3.49,1.67,7.49,5.66,10.17,1.88,1.26,4.27,1.32,6.17,2.47,1.06.65,1.9,1.9,3,2.59a45.73,45.73,0,0,1,4.87,3.13,185.84,185.84,0,0,1,14.93,12.7c5.07,5,9.6,11.28,14.12,16.83,3.4,4.16,5.6,9.08,9.1,13.11-.63-2.68-.58-4.77-2.67-6.84-5.78-5.68-4.25-11.24-6.1-16.8-1.43-4.3-5.8-6.46-8.1-10.6-2-3.65-6.62-8.81-7.36-12.81-1-5.64,6-3.46,6-6.58,0-1.2-3.28-3.8-3.71-5.43a6.07,6.07,0,0,1,.76-5.24c3.29-5.39,11-12.06,17.51-8.89,3.05,1.49,4,5,6.93,6.21,1.18.47,1-1.79,2.58.25a3.48,3.48,0,0,1,.45,1.71c.13-5.68.47-11.32.2-17-.39-8.19.33-15.89-.61-24.18a37.72,37.72,0,0,1,.19-10.57c.41-2.6-2.08-7.82.16-9.24l-.34-.31c-2.84,2-6.91,6.57-10.25,6.95-1,.12-2.13-1-3.26-.88-2.15.29-4.41,3-6,4.14-2.38,1.74-5.87,2.52-8,4.37-1.31,1.14-1.69,3.05-2.82,4.35-2.07,2.4-7.07,5.92-10.15,6.49-1.15.21-2.29-.56-3.48-.14-1.43.5-3,2.72-4.19,3.7-2.73,2.32-2.62,2.85-3.36,6-1.3,5.56-7.25,10.52-11.88,13.71-4.06,2.8-6.57,7.05-10.14,10.42C175.72,556.53,180.06,557.29,182.46,560.44Z" transform="translate(0 -380.51)"/><path class="cls-1" d="M121.1,626.53a21.7,21.7,0,0,1,3.57-14.25c3.3-4.95,4.48-7.27,3.93-12.79-.37-3.77,1.33-7,3.14-10.31,3-5.49,5-11.49,7.85-17.09,2-4,5.41-8.5,4.23-13.29s-5-10.76-4.55-15.85c-2.37.38-2.06.14-1.72-.06A45.5,45.5,0,0,0,127,548.47a59.22,59.22,0,0,1-15.52,8.16c-5.43,2.08-10.69,3.59-15.26,7.51-3.8,3.27-7,7.27-10.8,10.5-4.47,3.76-5.28,4-10.23,3.3-5.86-.82-10.2.67-14.73,4.25-5.08,4-9.67,7.4-14.18,12.09-1.42,1.49-3,3.36-4.6,5.12a8.35,8.35,0,0,0-.69-4.12c-1-2.46-3.58-5.49-3.78-7.42-.33-3.22,3.09-6.33,4.45-8.92.69-1.3.85-2.92,1.56-4.22s2.57-2.45,2.88-3.87c.2-.89-.65-2.73-.48-4,.21-1.53,1.15-2.95,1.49-4.46-1.82,4.16-11.31,8.07-14.95,10.32-4.17,2.59-6.61,7.78-9.49,11.81a44.87,44.87,0,0,1-12.15,11.75c-1.73,1.17-9.72,8.57-6.37,10.07a6,6,0,0,0-.57,3.24c.66-.14,1.56.21,2.2.08.13,2.38-2.1,4.46-4.17,5.81-.55.16-1.1.3-1.65.41a6.75,6.75,0,0,0,1,0l-.65.37a23.15,23.15,0,0,1,3.45-.41,2.91,2.91,0,0,1,1.42,1c1.49,1.72.16,2.34,0,4.66,4.29-.34,11.49-7.88,15.14-2.61,2.95,4.26-2.4,10.72,1.25,14.89,1.24,1.42,2.57.86,3.91,1.64,1.93,1.12,1.88,1.2,2.83,3.57,2.83-1.63,4-6.1,6-8.61,1.38,3.85-1.73,7.82-2.69,11.42-1.23,4.62.35,9.34,1.38,13.8,1.06,4.64.82,9,.88,13.63.08,5.16,2.63,5.45,5.29,9.09,5.15-3.52,8.47-9.22,14.87-11.34,7.76-2.58,8,3.85,11.55,8,2.24-.5,2.24-3.24,3-5,.93-2.34,1.55-2.47,2.94-3.75,3.69-3.39,8.94-3.86,13.65-5.11,5.29-1.4,6.68,2.37,6.88,7.34.29,6.82-.31,13.79,0,20.64,3.25-4.3,4.33-10.44,7.14-15.14,1.64-2.75,2.79-5.39,4.27-8.26,2.85-5.52,8.67-11.08,14.58-13.19.53-5.44,7-9,7.32-15.08C125.63,633.08,121.57,630.79,121.1,626.53Z" transform="translate(0 -380.51)"/><path class="cls-1" d="M728.11,455.42c-.39,2.9-.5,5.1-.63,7.17A19.83,19.83,0,0,0,728.11,455.42Z" transform="translate(0 -380.51)"/><path class="cls-1" d="M751.15,478.46c-3.81,4.23-4.86,8.26-7.69,12.94-6.48,10.72-22.71,23.11-33.71,28.85,7.89-9.71,6.06-22.5,10.66-35,1.84-5,4.39-9.52,5.73-14.23a37.19,37.19,0,0,0,1.34-8.46c-1.43,5.42-4.64,9.83-6,13.46-3,8.16-5.85,15.17-9.58,23.07-3.41,7.22-6.84,11.84-12.78,17.74-4.59,4.57-9.46,13.73-14.63,16.07,2.12,7.66-5.11,10.22-8.08,15.58-5.34,9.65-7.89,21.2-16,30.19-1.53-2.25-4.32-3.11-6.09-4.59-6.37,13.25-14,27.49-26.3,34.55-6.15,3.54-5.81.91-9.59,9.8-3.37,7.92-8.57,14.46-12.36,22,5.68-1.18,9.33-4.13,13-8.45,2.76-3.2,7.23-11.26,7.23-11.26s4.78,2.31,8.2-.19c4-2.94,9.18-15,11.81-19.25.58,1.49,2.33,2.76,3,4.21,6.18-5.31,13.25-7.79,19.09-14,7.84-8.41,7.14-9.08,12.41-18,.91-1.54,3.17-2.76,5.14-5.72.88-1.32.57-7,.57-7s5.87,2.11,6.48,0c1.72-5.91,5.17-7.58,7.24-9.72,6.1-6.29,26.77-6.76,22.87-18.29,5.43-1.69,9.86-9.29,13.31-13.65,4.13-5.22,8.12-7.58,12.33-11.73,4.52-4.45,4.31-11.07,10-20.55.26-.43-1.14-3.31.38-6.48a17.13,17.13,0,0,0,1.44-11.93C759.16,471.43,754.32,474.93,751.15,478.46Z" transform="translate(0 -380.51)"/><path class="cls-1" d="M878.64,542.71c.15-8.36-.31-15.5,3-23.7,2.62-6.58,8.4-12,8.21-19.5s-4.21-13.91-7-20.5c-1.38-3.26-6.13-9.77-.08-11.72,1.67,2.44,5.22,2.35,7.44,5,2,2.37,3.28,4.82,5.92,6.7,3.52,2.5,6,3.68,8.76,7.2,2.59,3.31,4.82,7.2,7.61,10.31-.16-6.57,1.46-13.41.85-19.8-.41-4.3-1.29-10.09-3.32-14-1.87-3.56-5.42-5.43-7.27-8.94-2.31-4.37-.48-7.44-5.39-9.91-3.57-1.8-7.37-1.63-6.64-7.11-5.12,1.88-10.08,5-13.94,7.28-7.12,4.14-3.88-3.1-6-7.64-5.55,5.79-14.92,11.85-21.74,15.89,0-1.86,0-3.74,0-5.6a42.62,42.62,0,0,0-7.7,11.85c-1.6,3.7-6,10.92-4.35,14.67,4.34-7.85,11.6-11.16,17-18.2.21,6.67-3,13.75-2.3,20.31,2.07-1,3.06-3.56,5-4.66.74-.41,2.88-.72,3.3-1a28.65,28.65,0,0,0,5.8-4.57c2.18,5.44-2.95,16.54-6.14,20.79-2.67-.19-3.5-2.85-4.16-5.27-1.91,2.79,0,6.81-.32,10a29.39,29.39,0,0,1-2.4,7.71c-1.35,3.38-2.51,5.26-1.6,8.82.6,2.36,2.4,3.28,1.32,5.74-2.66-1.46-5.59-.92-8.4-2.53-2.41-1.38-3.17-3.38-6.5-2.61,2.28,4.7-2.48,7.94,3.48,10,5,1.74,7-.28,11.9,3.08C861.17,526.55,868.28,540.6,878.64,542.71Z" transform="translate(0 -380.51)"/><path class="cls-1" d="M1065.38,536c-.52-2.26.11-4.24,2.66-4,.33-2.45-1.54-4.08-2.08-6.07,3-.32,5.06-3,8.23-2.73a60.36,60.36,0,0,0-8.3-.89c-2.73-.13-5.94-1.28-8.17-1.33-3.07-.07-12,4.79-13.57,8C1050.14,530.88,1059.85,538.2,1065.38,536Z" transform="translate(0 -380.51)"/><path class="cls-1" d="M1233.06,587.62a57.53,57.53,0,0,1-8.81,2.41c-5.36,1.07-10.1-1.27-15.66-1.46-.45,1.54.32,2.82,1.88,3.66-3.48,1.08-8.26,2.77-12,3.11-3.17.29-5.41-1.14-8.39.69.6.79.74,2.68,1.43,3.53-7.07,3.64-16.14,3.26-23.74,4.32-15.94,2.24-37.29,8.87-52.13.12-6-3.53-10.4-8.74-16.68-12a57.09,57.09,0,0,1-13.29-9.27c-2.33-2.13-5.3-5.11-10.07-3.18,10,9.84,11.3,28.06,9,41.16-1.25,7-2.94,14.42-5.86,20.94-3,6.77-6.71,8.44-13.29,11.17-6,2.48-10,4.33-16,2-7.33-2.79-13.26-6.61-21.21-7.49a21.64,21.64,0,0,1,5.17,4.81c-5,3.28-9.49,7.23-15.27,8.94-8,2.35-20.88,7.51-28.94,5.34,2.55.37,4.88,1.72,7.4,2.32-2.59,2.79-3.46,5.6-7.53,6.93a48.35,48.35,0,0,1-12.37,1.86c-12,.49-20-1.93-30-7.77-5.93-3.44-14.57-5.89-21.34-3.77,4.23,1.33,8.78,4.47,12.32,6.93,3.82,2.67,3.47,4.29,3.58,8.55-9.18.25-18.6,2.89-28.65,4.57a48.67,48.67,0,0,0-10.85,3.46s10.22,8.19,12.47,11c-5.6.07-9.72,3.88-15.79,3.66-3.77-.13-17,0-12.55,7.88-4.76.82-8.81,3.39-13.43,4.47-3.27.76-7.13.41-10.13,2.28a13.22,13.22,0,0,0-5,6.54c8-7,13.78-6.5,23.68-4.34,1.24.27,3.62,1.34,4.78,1.24,3.54-.29,1.66-1,4.45-2.93,3.74-2.58,6.52-1.78,10.77-2.27,7.46-.85,14.45-4.24,21.7-6.12,8.86-2.3,18.16-2,27-4.87,3.21-1.06,6.38-2.31,9.51-3.68-2.15,3.73-8.37,5-11.72,6.68-2,1-16.38,6.61-16,8.88.57,3.72,5.13-.72,5.93-1a10.52,10.52,0,0,1,8.86,1.72c5.84,4.47-.72,9,.41,15.12,3.35.31,7.25-1.45,10.48.18,2.23,1.12,2.8,2.77,5.09,3.9,2.86,1.41,2.63-.65,4.76,2,1.84,2.25,1.52,5.5,2.23,8.1,2.52-5.31,5.54-10.28,3.65-15.85-1.38-4.08-4-4.39-6.87-7.42s-2.45-6.9-4.76-9.62c-2.15-2.55-6.5-2.3-9.15-3.81,3.31-2.48,9.11-3.89,7.45-9,5.93-2.61,11.7-5.65,17.31-8.71,10-5.43,21.58-6.52,31.84-11.75,10.58-5.39,23-4.43,34.6-6.89,10.35-2.18,19.65-7.34,29.75-10.42,14.15-4.31,27.21-11.49,40.28-18.32,10.85-5.67,20.55-11.11,32-15.75,11-4.46,21.15-11.22,31.68-16.73a71.46,71.46,0,0,1,8-3.55c-1.17,2.13-3.62,2.9-4.65,4.87-.43.82.42,2.31,0,3.15-.59,1.32-1.71,2.09-2.44,3.34-1.61,2.73-2.5,2.78-.68,5.09.85,1.09,4.47,2.23,5.65,1.38,3.18,3.1,3.12,7.71,3.29,11.85.52-.28.7-.17,1.28-.7-.2,6.52-.39,16.24-3.47,22.7,5.19-9,14.67-19.35,14.09-29.93a36.79,36.79,0,0,0-3.11-12c-1.2-2.61-7.42-7.64-7.66-10.62,6.75-2.43,13.71-4.4,20.31-7.55C1215.59,598,1228.44,595.45,1233.06,587.62Z" transform="translate(0 -380.51)"/><path class="cls-1" d="M1303.28,607.09c-1.5-4.86-4.56-8.8-5.42-13.56-.76-4.23-1.55-8.37-2.62-12.44-2-7.42-8.71-17.39-5.36-25-3.73,6.22-17,13.68-24.27,15.84.83,1.71,1.6,5.32.24,7-2.26,2.77-1.15,0-3.21.67-2.28.75-7,3.3-10,3.17-1.47,6.18-2.89,15.16-9.38,16.17-.9.14-1.93-.63-3.08-.46-2,.3-4,2.09-5.91,2.8-3.8,1.41-6.54,1.72-9.93-.12-.84,6.52,2.95,12.28.83,18.94-1.77,5.56-6.57,9.62-7.64,15.59-.21,1.16.67,2.38.49,3.39-.36,2-2.09,3.4-2.65,5.21a12.29,12.29,0,0,0,0,7.61c.66,1.79,2,3,2.61,5a46.52,46.52,0,0,1,1.8,6.42c.94,9.18-5.36,19.39-6.29,28.45,3-5.76,8-9.91,11.16-14.94,3.89-6.07,8.25-18.1,8.88-25.53.51-6.05-4.86-14.93-3.39-19.87,1.08-3.63,6.83-6.49,10.38-6.05,0,2.34.5,5,2.59,6.19,4.45-5.16,2.79-13.19,5-19.37,3.84-10.52,13.51-17.51,22.64-22.87,3.25,3.08,2.4,17.94,6.09,17.85a38.25,38.25,0,0,0,.49,5.65c1.66-3.26,5.06-11.72,8.43-13.31,2.94-1.39,5.38,1.39,7.23,2.75,6,4.45,10.42,10.5,13.66,17.59C1305.45,615.68,1304.65,611.5,1303.28,607.09Z" transform="translate(0 -380.51)"/><path class="cls-1" d="M1184,661.84c-.37.64-.72,1.27-1,1.89A18,18,0,0,0,1184,661.84Z" transform="translate(0 -380.51)"/><path class="cls-1" d="M1148.39,630.58c-5.54,2.72-18.83,9.22-18.11,16.8,2.67,0,4.45-2.3,6.46-3.87,1.46,1.84,1.32,4.93,2.16,7.25,1.68,4.62,4.93,8.21,7.28,12.49,1.8-4.92-2.89-11.09-1.34-16.7C1146.47,640.62,1148.39,637.21,1148.39,630.58Z" transform="translate(0 -380.51)"/><path class="cls-1" d="M1109.28,662.93c-4.67-.74-9.27.72-13.88-.23-2.67-.55-4.74-1.06-8.22-.31-5.19,1.12-11.26,1.85-14.64,3.23-6.62,3.23-13.39,5.55-19.92,8.54,2,1.8,7.05,1.08,9.77,3-2.69,3.58-5.77,5.54-7.88,9.7,5.75-.6,11.23-3.23,17.1-3.9,3.74-.42,10.21-2.59,13,0,4.17,3.77,4.31,13.56,3.1,18.52a50,50,0,0,1-7.52,16.6c6-4.8,10.93-10.18,17.53-14.14-.25,2-1.28,3.63-2,5.56,9.3-9.11,23.2-18,22.49-32.82C1117.92,670.13,1116.46,664.06,1109.28,662.93Z" transform="translate(0 -380.51)"/><path class="cls-1" d="M1032.7,719.7c-.42-2.55,1.44-5.06,1.27-7.06-.14-1.64-1.6-3.81-3-5.45a48.83,48.83,0,0,0-8.21-7.74c-3.32-2.38-7.44-3.76-10.43-6.44-4.68-4.19-.46-5.36-1.44-10.54-3,2.8-9.47,4.11-11.87,7.19-1,1.3-4,9.5-3.68,10.33.91,2.31,6.61,3.59,8.58,4.66a31.84,31.84,0,0,1,7.43,5.31c4.87,5,5,9.29,4.92,15.47,6.11.35,12.55-.14,18.59.51,5.86.64,9.59,5.34,13.69,9.19-1.57-3.84-.76-9.88-3.78-12.92C1042.46,719.9,1035.48,717.59,1032.7,719.7Z" transform="translate(0 -380.51)"/><path class="cls-1" d="M887.94,722c-1.74,2-4.57,2.12-6.93,1.32-1.36,6.76-5.12,9.35-10.94,12.82-4.28,2.55-7.31,2.13-3.54,5.89s3.35,2,.24,6.91a14.69,14.69,0,0,1,10.62,5.39c2.83,3.57,1.76,8.71,3.88,12.38.86-5.82,3.52-12.47,6.09-17.89,1.69-3.57,2.76-6.4,2.35-10.47-.32-3.14-1.35-6,.09-9.3C889.82,726.86,888.2,724.59,887.94,722Z" transform="translate(0 -380.51)"/><path class="cls-2" d="M667,473c-.26,1.64-.51,3.24-.83,4.67A26.91,26.91,0,0,0,667,473Z" transform="translate(0 -380.51)"/><path class="cls-2" d="M667,473a44.29,44.29,0,0,1,1.83-8.29c1-2.55,3.23-3.42,2.89-6.49-.28-2.62-2.75-4.21-3.5-6.89-.81-2.92-.78-6.71-1.07-9.65a31.54,31.54,0,0,1,.77-12.27c.9-3.58,1.28-7.07-.1-10.73-1.44-3.82-4.47-10.47-5-11-5.61.35-.95,10.5-.84,13.69.21,6.34.11,10.62-2.88,16-1.47,2.65-3.43,7.36-2.14,10.53,1.83,4.48,6.53,6.87,8.09,12C666.47,464.65,667.34,468.59,667,473Z" transform="translate(0 -380.51)"/><path class="cls-2" d="M688.26,461.59c0,.16,0,.31,0,.47S688.34,461.94,688.26,461.59Z" transform="translate(0 -380.51)"/><path class="cls-2" d="M685.83,498.12c-.74-2.78-2.49-4-1.72-7.22.58-2.45,2.64-4.41,3.57-6.79a36.66,36.66,0,0,0,2.3-11.06c.15-3.78-1.8-7.3-1.72-11-.28-.06-1.55-2.7-2.13-5a60,60,0,0,1-2.7,18.37c-1.74,5-5.28,9.72-6.22,15.06-1.26,7.11,5.3,11.47,3,18.73a103.08,103.08,0,0,1-9.14,20.33c-1.71,2.91-1.47,4.94-1.59,8.09-.2,4.82-3.5,9.1-3.64,13.58,1.58-3,2.11-7.14,3.4-10.5,1.68-4.37,4.92-8.17,7.32-12.14,3.77-6.23,6.24-9.84,7.55-16.85C684.91,507.44,687,502.53,685.83,498.12Z" transform="translate(0 -380.51)"/><path class="cls-2" d="M713.67,501.85c.23-2.93-1.31-2.59.49-5,1.09-1.47,3-2.24,4.07-3.82a64.9,64.9,0,0,0,6-12.62c2.7,3.74,7.67,6.24,7.35,11.65.44-3.5,1-5.92.84-9.16-.15-2.94.42-6.59,0-9.85-.64-5.12-3.74-11-3.82-15.7-2.31,4.51-2.26,9.13-6.16,13.4-4.73,5.18-4.84,6.85-6.48,13.36-1.23,4.85-4.69,8.09-5.63,13.17-.81,4.37-1.47,9-4.34,12.74-2.34,3-5.47,4.88-7.75,7.77-1.62,2-3.16,4.23-4.77,6.3C700.52,521.49,713.05,509.88,713.67,501.85Z" transform="translate(0 -380.51)"/><path class="cls-2" d="M636.44,415.92c2.79-3.92,4.87-7.27,4.17-12.5-3,3-5.2,7.26-8.84,9.74v-.85c-1,4.83.75,10.24-2.08,15.64C633.37,427.08,634.44,418.74,636.44,415.92Z" transform="translate(0 -380.51)"/><path class="cls-2" d="M587.91,490.47a9.88,9.88,0,0,1,.51,7.1c1.31-5.36,4.86-7.74,5.09-13s3.39-9.79,3.36-14.75c-3.56,2.65-4.67,7.44-4.61,4.53-1.77,2.5-9.07,8.82-8.09,12.34C584.41,487.52,587.16,489,587.91,490.47Z" transform="translate(0 -380.51)"/><path class="cls-2" d="M768.43,508.74c.87,4,4.77,8,6.39,11.89a90,90,0,0,0,8.38,14.61c4.92,7.38,7.47,12.83,8.38,21.9,1.79-4-1.83-10.77-2.86-15-1.33-5.53.18-10.28-2.22-15.76-2-4.69-3.18-9.8-5.19-14.19-1.67-3.63-8.83-11.9-3-15.42-3.91-2.44-4.17-6.06-7-9.74-2.06-2.65-4.82-8.33-7.78-9.68.55,5.63,4.24,11.28,5.95,16.35C771.29,499.27,767.24,503.29,768.43,508.74Z" transform="translate(0 -380.51)"/><path class="cls-2" d="M762.19,529.07c3.87,11.26,5.48,23.55,6.45,35.29.63-1.88,1.86-4.2,4-5.18-5.69-2.06-1-21.08-2.81-25.89-.54.7-1.62,1.13-2.15,2.06-2-6.07-4.62-11.06-5.63-17.36-.93-5.81-1.22-12.25-2.89-17.69,0,.55,0,1.09,0,2.07.34,4.55-2.17,8-2.13,12.32C757.1,519.19,760.7,524.74,762.19,529.07Z" transform="translate(0 -380.51)"/><path class="cls-2" d="M753.23,547.54c3.55,5.47,5.76,11.61,8.54,17.14.15-10-5.48-15.11-9.68-23.32-1.68-3.26-2.31-6.47-3.55-9.7a7.46,7.46,0,0,0-3.78-4.23,108.13,108.13,0,0,1,9.77,33.86A75.81,75.81,0,0,0,753.23,547.54Z" transform="translate(0 -380.51)"/><path class="cls-2" d="M735.41,536.35c1.32,3.67,1.7,7.48,2.65,11.14.68,2.62,3.6,5,3.39,7.51,6-3.08,17.3,36.49,21.61,40.67-2.64-5.17-3.91-10.84-6.22-16.16-1.64-3.79-4-7.13-5.62-10.87a162.87,162.87,0,0,1-6.57-16.28c-.78-2.45-2.33-4.67-2.86-7.09-.38-1.74.46-3.6,0-5.1-.95-3.16-4.88-5.88-6.74-8.49C734.8,533.81,735.74,535.75,735.41,536.35Z" transform="translate(0 -380.51)"/><path class="cls-2" d="M712.94,559.35c2.31,6.09,10,12.23,13.94,17.65a127.38,127.38,0,0,1,8.63,12.92c2.77,5,4.94,13.33,9.61,16.92.22-4.38-5.42-9.51-7.06-13.66a221,221,0,0,1-8.22-23.7c-1.49-5.62-3.7-6.64-7.19-10.79-2.2-2.62-4.08-7.81-5.08-10,.53,1.34-.88,8.8-2.21,11C714.59,559.37,713.63,559.57,712.94,559.35Z" transform="translate(0 -380.51)"/><path class="cls-2" d="M706.53,591.16c2.06,1.72,5.43,3.31,7.14,5.59s1.8,5.88,3.82,8c-.26-1.25-.13-2.79-.28-4.08,7.8.92,12.9,9,19.75,12.23-2.72-4.51-4.41-9.72-7.91-13.74s-8.54-5.47-11.84-9.68c-5.57-7.1-9.14-17-13.58-25,0,3,1.36,5.95,1,8.61-.3,1.91-2.37,1.82-1.06,4.32-2.88-1.76-5.45-5-8.83-5.42-.18-.67.09-1-2.6,0C697.45,577.73,700.51,586.13,706.53,591.16Z" transform="translate(0 -380.51)"/><path class="cls-2" d="M812.63,576.38c-.9-5.4-4.94-8.82-7.24-13.34a121.6,121.6,0,0,1,1.29,12.27c.21,4.77,2.45,12.14.87,16.64a20.43,20.43,0,0,1-5.41-2.47c1,3.16,4.14,5.24,5.72,8.12,1.17,2.14,1.43,4.75,2.8,6.7,2.51,3.57,7.49,5.57,10.55,8.79,2.06,2.18,3.7,4.77,5.91,6.81-3.39-10.09-7.39-20.7-12.5-29.82C812.05,585.52,813.44,581.24,812.63,576.38Z" transform="translate(0 -380.51)"/><path class="cls-2" d="M804.65,561.41c.22.56.47,1.1.74,1.63C805.14,561.7,804.88,561,804.65,561.41Z" transform="translate(0 -380.51)"/><path class="cls-2" d="M789.18,649.33c-10-5.35-16-13.59-23.94-21.75A24.38,24.38,0,0,0,751.89,620c-5.52-1.34-7.5-5.83-12.23-7.64,3.11,5.07,5.3,8,10.63,11.25,5.72,3.48,8.79,10.29,14.32,14.54,3.61,2.78,6.54,6.23,10.06,9,3.93,3.15,7.3,4.46,10.39,8.76,5.23,7.28,9.28,15.61,14.88,22.59-1.27-7.76-9.11-13.68-11-21.16,3,1.19,5.21,3.92,7.46,6.19-1.36-1.56-1.08-1.58-.28-3.1-4.9-4.37-9.46-9.19-14.38-13.57,3.43,2.38,7.32,3.16,11.16,4.6C791.69,650.76,790.47,650,789.18,649.33Z" transform="translate(0 -380.51)"/><path class="cls-2" d="M806.75,659.53c-.66-.24-1.28-.53-1.91-.81,3.12,2.06,6.29,3.76,9.12,3.7C812,661.4,809.23,660.48,806.75,659.53Z" transform="translate(0 -380.51)"/><path class="cls-2" d="M795.75,652.74a27,27,0,0,0-2.85-1.21c4,2.5,7.62,5.22,11.94,7.19C801.62,656.6,798.45,654.09,795.75,652.74Z" transform="translate(0 -380.51)"/><path class="cls-2" d="M822.89,567.23c3.43-7.11.27-15.12-1-22.17-1-5.16-.68-10.83-1.93-15.79-.62,6.87-4.3,5.17-8.91,3.68-.79.93,5.72,15.73,7,18.68C820.05,556.34,824.73,561.92,822.89,567.23Z" transform="translate(0 -380.51)"/><path class="cls-2" d="M861.16,552.15c0,3-3.3,9.14-6.4,10.34-4.56,1.76-5-7.84-6.87-12-2.42-5.39-5.67-10.76-8.17-16.16-1.13,2.9.75,8,1.46,10.95a62.64,62.64,0,0,1,1.67,16.34c-.09,5.93,3.95,10.33,7.46,15.42,3.82,5.55,7.33,9.85,9.9,16.33s3.48,13.92,6.39,20.17C858.63,592.87,861,573.24,861.16,552.15Z" transform="translate(0 -380.51)"/><path class="cls-2" d="M838.19,530.76c.46,1.19,1,2.37,1.53,3.56a2.92,2.92,0,0,1,.19-.52C838.25,532.06,838.27,529.87,838.19,530.76Z" transform="translate(0 -380.51)"/><path class="cls-2" d="M578.31,552.87c-.34-6-4.43-9.37-3.47-15.25-1.77,6.89-5.14,11.74-3.13,19.11,1.38,5.06,3.08,9.86,4.24,15.1.86,3.85,3.43,8,3.14,12,0-7.67.41-15.19.85-22.81.29-5,2.25-7.64,3.79-12.19C582.12,550.29,580.43,552.49,578.31,552.87Z" transform="translate(0 -380.51)"/><path class="cls-2" d="M476.63,428.9a12.5,12.5,0,0,1-1.77,2.69C476,430.55,476.7,429.62,476.63,428.9Z" transform="translate(0 -380.51)"/><path class="cls-2" d="M457.78,454.69c.42,2.4,3.61,3.86,5,6.18,1.87,3.19,1.4,6.47,1.18,9.74-.28,4.19.67,7,1.44,11.29-.61-6.39,3.95-10.69,3.69-17a63.58,63.58,0,0,1,.57-13.31c.34-2.13,1.56-4.63,1.47-6.67s-1.63-3-1.1-5.7,3-5.3,4.86-7.64c-2.62,2.48-7.35,5.56-8.54,7.91-2.37,4.68-.8,10.54-3.8,14.55a9.68,9.68,0,0,1-3.12-5.42C459.57,451.22,457.46,452.83,457.78,454.69Z" transform="translate(0 -380.51)"/><path class="cls-2" d="M459.16,447.42a11.24,11.24,0,0,0,.24,1.21A5.18,5.18,0,0,0,459.16,447.42Z" transform="translate(0 -380.51)"/><path class="cls-2" d="M487.7,435l.25.19C488,435,487.92,434.87,487.7,435Z" transform="translate(0 -380.51)"/><path class="cls-2" d="M486.83,442.17c2.25-.67,4.24-4.64,1.12-7-.07.48-.72,1.67-1.08,2.78a28.79,28.79,0,0,0-1.54,5.11,30.42,30.42,0,0,0,.48,11.27C485.44,451,485.6,445.17,486.83,442.17Z" transform="translate(0 -380.51)"/><path class="cls-2" d="M489.57,519c1.93-5,2.2-10.66,3.84-15.76.81-2.54,2.08-11.5,3.24-12.66.06.54,0,1.15,0,1.67,2.7-3.53,4.16-5.63,7.53-8.31a22.57,22.57,0,0,0,5.1-5c3.1-4.74,5.38-11.92,6.93-17.28-5.63,4.86-8.5,11.22-15.12,14.64-.74-.76-3.73-1.19-3.94-1.52-1.83-2.87,1.7-7.29,2.81-9.9,1.95-4.58,5.46-8.16,4.79-13.69-.66,1.07-2.14,1.75-2.88,2.69-1-3.64,3-8.12,2.85-12.17-2.48-.22-3.71,2-6,2.29a35.45,35.45,0,0,1,.46-5.92c-.58.63-4.35,3-4.71,5.93-.2,1.7.94,3,.39,5-.47,1.73-1.9,3.06-2.39,5-2,7.66.52,15.69-3.9,22.76-.42-.54-1.76-1.79-1.81-1.91-.49,3,.89,3.76,1.56,6.24,1.19,4.39,0,3.09-.62,6.88-1,6.18.71,9.39-2.67,15.41,1.76-.74,3.49-2.77,5.44-3.69C491.23,506.07,488.77,512.64,489.57,519Z" transform="translate(0 -380.51)"/><path class="cls-2" d="M499.19,437.89a1,1,0,0,1,0,.17C499.26,438,499.28,437.9,499.19,437.89Z" transform="translate(0 -380.51)"/><path class="cls-2" d="M409.33,492.51c.39.72,3.62.9,4.49,1.4,2.26,1.29,3.08,3.59,4.95,5.21,2.38,2.06,4.55,1.15,6.66,2.38,3.17,1.85,7.71,8.11,10.61,11.44,4.12,4.71,7.27,11.08,10,16.66,2.92,5.94,5.39,17.56,10.35,21.71-1.82-6.79-5.36-12.88-7.68-19.35-1.77-4.94-2.39-11.28-4.85-15.7-1.76-3.18-5.07-5-7.53-7.51-1.85-1.91-2.9-4.32-4.73-6.29-3.78-4-8.7-7.2-11.75-11.43-2.63-3.65-2.71-9.93-6.79-12.34-7.1,5.1-3.1,6-2.63,8.58C410.71,488.78,408.74,491.44,409.33,492.51Z" transform="translate(0 -380.51)"/><path class="cls-2" d="M406.65,507.21c5.91,5.43,12.6,9.9,17.71,16.3,2.13,2.67,2.45,4.48,3.44,7.47,1.22,3.65,3.24,6.53,5.35,10A175.94,175.94,0,0,1,444,561.38c1.94,4.36,3.48,9.15,5.32,13.34,2.22,5,6.16,9,8.75,13.86-4.6-7.78-9.38-17.79-10.75-26.7-1.06-6.88-4.92-13.24-7.9-20.14s-4.94-15.32-9.95-20.74c-5.57-6-10.76-13.51-17.32-18.52-3.27-2.51-6.65-4.74-9.49-7.75-3.11-3.32-1-5-3-8.37a4.94,4.94,0,0,0-2.75,3.74C395.68,495,403.21,504.06,406.65,507.21Z" transform="translate(0 -380.51)"/><path class="cls-2" d="M535.74,480.8c-.73-2.2,1.74-7.79,1.81-10.59-2.1.21-3.84,1.8-5.83,2.42.15-3.59-3.37-3.11-4.16-6.22-.46-.1-.87-.06-.94-.43-.08,1.79.83,4.92,0,6.74-.95,2.15-3.2,1.47-3.71,4,1,0,2,.8,3.2.66.66,5,1.87,12.39-.88,16.76-3.24,5.13-9.3,5-14.2,7.36a38.09,38.09,0,0,0,5.42-14c.44-3,1.73-8,1.07-11.12-2.07,2.51-4.92,5.7-8.37,4.79-1.68,4-1.54,8.64-2.46,12.83-1.26,5.75-5.32,8.53-7.62,13.41-2.61,5.54-1,12.24-4,17.88-2.08,3.88-5.26,7-6.42,11.43,4.87-2.11,12.53-11.63,16.6-15.21,2.33,4.41,3.87,4.24,6.21,2.44,3.41-2.62,6.51-7.92,10-10.52s9-9.75,11.86-6.8c4.27-4.82,3.38-10,6.61-15.23,2.39-3.88,2.56-9.34,5.75-12.6C542.68,478.82,537.46,486,535.74,480.8Z" transform="translate(0 -380.51)"/><path class="cls-2" d="M526.62,466a3.47,3.47,0,0,1,.06-.6A1.38,1.38,0,0,0,526.62,466Z" transform="translate(0 -380.51)"/><path class="cls-2" d="M363.81,500.56c2.7,4.11,4,2.82,7.62,5.27,2.55,1.74,5,5.29,7.38,7.45-1.15-3-3.11-5.42-4.39-8.33-1.46-3.32-.48-4.94-2.11-8.22-2.72-5.5-10.55-12.53-13.91-16.61-3.82,7.57-3.51,11.26-1.81,13.32C358.9,496.24,361.6,497.18,363.81,500.56Z" transform="translate(0 -380.51)"/><path class="cls-2" d="M427.31,590.83c-1-2-.29-4.83-.9-7s-2.1-4.73-3-6.87c-1.63-4-1.91-8.25-3.33-12.11s-3.38-3-5.39-5.14c-2.7-2.81-4.8-7.44-7.15-10.68-2.66-3.68-5.45-4.88-8.62-7.8-4.66-4.3-7.08-9.91-12-14.07,1.88,3,1.92,7.07,3.79,10.24.6,1,2.12,1.38,2.88,3.07s-.19,2.91.71,4.76c3,6.17,10.54,8.63,12.61,15.67,1.3,4.42,1.67,7.27,3.67,11.5s.3,9.2,2.11,13.27,5.08,5.95,5.13,11.36c.05,4.39-.55,8,.12,12.51.39,2.62,1.26,3.81.24,6.39-.8,2-2.27,1.59-2.73,4.41-.23,1.37.53,2.19.6,3.39.19,3.4-.51,4.59-1.46,7.92-.79,2.75-.44,6.3-1.82,8.69a5.58,5.58,0,0,0,2.12-.15c.29-6.69,4.49-13.41,7.85-19.06,2.52-4.24,7.75-8.06,9.33-12.65-4.92-3.59.38-4.56,1.34-6.79,1.14-2.63.61-3.5-1.31-5.84C430.73,594.2,428.21,592.64,427.31,590.83Z" transform="translate(0 -380.51)"/><path class="cls-2" d="M374,535.38c-3.21-5.29-7.35-11.92-12.25-16.27-2.35-2.09-5.42-4-7.23-6.66-2.17-3.12-3.62-6.86-5.77-10-1.86-2.7-10.35-11.25-9.63-13.4-2.58,3-10.29,6.89-7.91,13.34,1.05-1.82,2.15-3.74,3.93-4.68,1.82,2.66,4.06,7.44,7.55,7.25.74,3.4-1.27,6.18-3.71,8.36-.3-3.45-2.67-.36-4-2.28-1-1.45-1.11-5.95-1.23-7.56-1.7,4.89-5.67,7.42-8,12.26a7.56,7.56,0,0,1,5.15-2.79c.15,2.75,2.43,4.25,4.34,5.54a8.18,8.18,0,0,1,4.68-1.24c-.22,3-2.63,5.8-4.19,8.41a6.63,6.63,0,0,0-.11-.76c-2.67,2.16-3,6.68-2,9.59.57,1.8,4.46,10.12,5.29,10.76,2.51-3.27,4.39-6.85,7.16-10-1.49,3.39-5.33,12.3-2.36,15.65,2.16-5.81,3.45-13.37,9.9-13.28-1-3.54,5.42-5,7.25-7.39-1.69,4-5.54,5.35-4.68,9.5.68,3.29,3.91,6.36,5.72,9.12,0-4.06,2.89-9,6.73-8,2.33.67,3.67,4.06,5.09,5.81,2,2.5,4.65,4.29,6.78,6.55,3.57,3.8,5.66,9.11,8.34,13.41,2.49,4,5.4,7.51,8,11.35,2,3,6.27,8.12,6.87,11.26-.79-11.53-7.92-22.34-14.28-31.24C383.89,550.53,378.73,543.27,374,535.38Z" transform="translate(0 -380.51)"/><path class="cls-2" d="M339.08,489.06c.1-.13.22-.26.3-.38A.58.58,0,0,0,339.08,489.06Z" transform="translate(0 -380.51)"/><path class="cls-2" d="M486.23,603.29c-1.87,1.43-3.61,1.43-5.3,3.62-3,3.81-5.68,11.67-7.13,16.28-1.87-2.2-3.05-7.08-6.54-10,1.21,6.66,1.72,10.43-.83,16.64-2.17,5.29-3,11.21-4.82,16.44-3.57,10.18-10.06,13.2-17.71,19.21,4.63,2.42,13.25-6.81,16.23-9.61,2.67-2.51,6-4.77,8.21-7.73,2.59-3.42,2.84-7.1,4.86-10.9,1.84-3.45,4.17-6.66,5.75-10.27,1.9-4.32,1.93-9.28,3.94-13.55,3.05-6.5,8.64-13,9.09-20.55C491.23,596.94,489.58,600.71,486.23,603.29Z" transform="translate(0 -380.51)"/><path class="cls-2" d="M601.78,573.78c-1.66-2.91-1.69-6.69-3.3-9.49-1.26-2.18-3.54-2.72-4.58-5.14,1.29-1.22,1.8-3,2.94-4.14,2.26-2.28,3.23-1.45,5.46-3.22,1.65-1.29,2.26-1.55,2.34-3.69.11-2.58-2.06-1.66-2.28-3.32-.46-3.54,2.34-5.32,2.76-8.86.56-4.67-3-7.67-2.92-12-5.18.86-10.24,1.55-15.45,2.81,2.92-3.19,3-6.94,5.9-10.14,1.78-1.93,3.44-2.87,3.91-5.58.39-2.2-.95-4.61-.47-6.18-.06,1.73-6.77,11.61-10.91,12.45-.3,4.87-4.24,9.26-4.73,14.17.41-.33,1.29-.67,1.75-1,1.77,2.86,1.55,5.6,1.5,9a42.42,42.42,0,0,1,14.39-9.55c1.71,1.85,3,7.38,2.26,9.89s-5.58,9.39-7.87,10.1c-1.39,5.42-7.08,10.81-4.52,17.11.52-.49,2.16-.91,2.81-1.76,2.17,3.71,2,7.66,3.29,11.74,7.07-2,7.07,18.2,8.06,23.29a9.28,9.28,0,0,0,2.66-3.69,15.12,15.12,0,0,1,1.29,5.87c-2.09,9.26-2.66,20-5.64,28.85,1.65-3.11,5.43-5.52,6.71-8.92.84-2.25,1.2-5.72,1.8-8.19,1.55-6.4,1.61-14.74.7-21.38C608.76,586.37,604.85,579.17,601.78,573.78Zm4.29,28.85c0,.34,0,.68,0,1A4.77,4.77,0,0,1,606.07,602.63Z" transform="translate(0 -380.51)"/><path class="cls-2" d="M592.33,550l.15-.05a9.17,9.17,0,0,0,.3-2.19C592.62,548.45,592.55,549.22,592.33,550Z" transform="translate(0 -380.51)"/><path class="cls-2" d="M627.54,488.13c1.88,2.47,4.11,5.87,4.67,9,1.4,7.87.51,16.43,3.06,24.21.52,1.57,1.86,2.56,2.36,4.06,1,3.09.4,6.51.5,9.68.22,6.89,2.26,15.25,8,19.68l3.66,2.4c.5.15.72.81.9.15-7.48-6.88-9.81-21.87-9.23-31.31.23-3.66,2-7.26,2.27-10.71.19-2.64-.08-6.92-.12-10-.08-5.49.82-15.6-2.94-19.72-3.88,2.6-3.83-1.31-4.68-4-1.34-4.25-1-2.56-3.82-5.22-3.06-2.94-6.48-5.27-5.65-10,1-5.79,5.62-9,9.45-12.82,2.24-2.25,3.82-7.37,7.55-7.65.62-2.82,1.75-4.35,2-7.27.2-2.52-1.72-7.71-.26-10,1.58-2.49,3.66-1.09,5.25-3.33.6-.84,1-5.09,1.13-6.19.68-6-2.32-18,.53-24.94l-.45,0c-3.23,3.21-1.38,12-3.59,16.57-2.44,5-7.9,9.83-7.89,15.71,0,2.82,1.18,4.89.45,7.76s-2.8,6-4.51,8.38c-3.92,5.41-8.89,9.49-12.07,15.3-2.78,5.09-6.17,8.23-9.72,12.62,3.79,3.16,3.13,9.65,6.39,13C623.1,485.72,625.23,485.11,627.54,488.13Z" transform="translate(0 -380.51)"/><path class="cls-2" d="M654.54,690.66c-3.26-4.81-1.87-12.43.14-17.52a5.62,5.62,0,0,1,2.73,4.59c0-12.28-6.68-22.26-8.17-34-2.48,2.81-3.25-.26-5.37-.53s-4.87,1.66-6-1.36c-5.4,1.36-2.58,1.91-6.08-1.5-1.94-1.89-4.55-3-3.81-6.17-1.9,7-1.44,7.06-1,7.2-.21,2.95,1.68,12.82,3.34,14.65,1.93,2.12,4.58,1.18,7,2.82s4.56,9.7,7.73,5.34c1,7.34,2.29,14.58.32,21.81-.73,2.69-.91,6.89-4.12,6.25-4.31-.85-3.78-7.94-5.09-11-4.09,1.18-7.81-2.2-11.53.43-.7-1.87-1-4-1.84-5.8-3.46,1.94-.15,7.33.51,10.27.53,2.36.64,10.92,3.31,12.18,2.51,1.19,2.23-1.07,4.28-1.93,2.44-1,.8-1.48,3.3-1.22,1.42.15,4.61,3.44,6.21,4,5.58,1.87,6.2-1,8.2,6.59a5.33,5.33,0,0,0,.42-1.26c.9,1.28,1.64,3.3,2.7,4.27.13-.46-.07-.87,0-1.29,2.27,4,3.32,10,7.11,12.71,2-10.14-.88-21.17-1.43-31.39C656.8,689.49,655.09,690.13,654.54,690.66Z" transform="translate(0 -380.51)"/><path class="cls-2" d="M327.92,616.61a17.56,17.56,0,0,0,2.87,4.83A9.4,9.4,0,0,0,327.92,616.61Z" transform="translate(0 -380.51)"/><path class="cls-2" d="M332.46,567.12c-.51,2.35-3,4.5-5.6,2.83-1.2-.77-.43-5.61-1.61-7.08-1.33-1.65-4.14.42-5.44-.67-5.46-4.59-6.46-14-9.14-19.87-.54.07-1.22.38-1.78.49-.18-2.91.08-6-.62-8.73-1.41,3.35-1.18,11-3.64,10.89,3.33,4.13.57,12,2.61,17.28,3.17,8.19,6.76,12.94,7.06,22.28.27,8.43,1,10.38,5,17.06,2.17,3.65,2.73,8,5.35,11.47a37.67,37.67,0,0,0,3.26,3.54c-3.09-7.24-4.58-18.57-3.17-24.31C326.83,583.81,331,575.71,332.46,567.12Z" transform="translate(0 -380.51)"/><path class="cls-2" d="M293.75,640.26c-1.84-4.4-1-9-3.43-13.21-2.74-4.65-3.83-3.94-4.35-9.91-.77-9,1.09-17,2.81-25.62-5.64,6-10.95,9.36-17.08,1.16-2.77-3.71-2.42-9.34-2-13.85.55-5.72,4.28-7.84,5.08-12.36-4.44,3.28-15.38,17.94-15.38,17.94s7.14,13.33,9.1,18.46c3.61,9.42,6.75,18.06,11.41,27.07,1.93,3.73,2.69,8.76,5,12.16,1.79,2.63,4.43,3.53,6.41,5.83,4.29,5,6.91,13.11,9.15,19.13.95-9.77-2.18-20.95-2.92-30.81C296.84,637.44,294.53,639,293.75,640.26Z" transform="translate(0 -380.51)"/><path class="cls-2" d="M876,445.05c-2.5-.79-4.15-6.17-5.38-8.46a5.27,5.27,0,0,0-1.86,3.2c.31,8.83-5.2,14.81-3.81,23.64a37.16,37.16,0,0,1,5.25-9C872.13,451.79,873.64,446.93,876,445.05Z" transform="translate(0 -380.51)"/><path class="cls-2" d="M913.22,452.91c-4.66-4.28-7.4-8.73-11.41-13.23-2.33,1.91-3.13,3.65-6.39,2.48-1.61-.58-4.91-3-5.59-4.35-.34,4,3.93,8.27,7.8,8,.08,4.27-2,8.46,1.39,12.08,2.82,3.06,6.5,1.83,8.74,6.73s-.3,9.27.5,14.51c.74,4.87,4.09,8.51,4,13.77-.36-7.48,1.68-13.49,3.29-20.2,2-8.48,5.11-6.9,9.7-10.26C922.28,459,916.79,456.19,913.22,452.91Z" transform="translate(0 -380.51)"/><path class="cls-2" d="M953.56,481.34c1,3.36,2.91,6.12,2.86,9.74,3.17-2.16,2.81-5.19,7.14-5.23,2.83,0,4.51,1.78,6.08,3.78,2.9,3.72,5,13.28,3.18,17.85,2.06-.22,3.75-2,5.06-3.8,2.57,5.23,4.92-2.64,8.72-2.08,2.58.37,8.15,8.78,10.55,10.62,6.38,4.91,12.13,9.15,17.29,15.71-.45-5.11-4-9.92-5.48-14.76-1.14-3.6-1.3-6.72-3.29-10.2-1.44,1.78-7.6-5.8-9.63-7.39-7.39-5.79-15.15-11-22.59-16.56-6.28-4.71-13.13-6.68-18.57-12.47-1,2.79-1.47,6.78-4.19,8.56-1.81-1.77-2.58-4.69-4.91-5.7,1.46,4.89,4.21,7.6,4.06,13.08C950.53,482,952.85,481.77,953.56,481.34Z" transform="translate(0 -380.51)"/><path class="cls-2" d="M913,532.26c1.28-5.16,8-8,7.62-13.49-.33-4.51-5.66-7.33-6.41-11.58-3.63,2.59-11.91,2.78-11.33-3.46-6-1.07-6.38,2.38-8.6-3.39-1.47-3.81.12-8.39-1.85-12.17-2.15-4.12-4.26-3.15-7.29-7.19a17.23,17.23,0,0,1-2.51-5.32c-.52-2-2.17-3.16-1.37-2.3-4.65,5.59,4.15,11.62,4,17.77-.13,4.21-2.31,14-4,18.1-1.43,3.56-4.84,4-6.64,7.24s.65,4.62.38,6.91-3.16,4.79-3,7.9c.08,1.55,4.55,8.11,4.65,8.55,1.5,6.44,12,7,16.66,6.85,3.66-.09,8-.92,11.2.35,2.86,1.15,4.83,3.8,7.67,5,2,.85,4.15,1,6.11,1.75s2.34,2.28,4.59,2.49c.16-.54,1.28,1.25,1.16.69.14.1,1.32,1.67.9.78C920.93,548.77,910.27,543.36,913,532.26Z" transform="translate(0 -380.51)"/><path class="cls-2" d="M995.89,626c-.48-1.57-.42-3.28-.81-4.88-1.39-5.78-7.62-12.82-6.48-18.53,1.09.31,3.29-.18,4.6.44-2.45-6.38-7.51-9.3-11.65-14.3,7.23-5.43-9.82-22.32-12.68-28.12-3.22-6.52-11.65-9.73-13.23-17.44-1.49-7.22,4.42-9.61,4.06-16.92a6.94,6.94,0,0,1,2.46-.32c-.66-.75-.9-1.82-1.71-2.56,8.95-3,17.94,7.8,27.4,6.5-1.4-3.91,1.46-8.18-3-11-3.48-2.22-8.48,1-11.48,0-2.18-.76-5.5-4.89-7.39-6.47-3.73-3.12-7.42-6.34-11.58-8.67-1.17,5.81-23.69-7.62-26.43-13.21-.79,7.21,6.39,12,9.63,17.79,2.69,4.77,6.6,10.75,6.73,16.32-1.09.1-2,.78-3.09.89.27,1.26-.49,3.13-.2,4.39-.78,0-1.65.19-2.42.22-3.86,7.31,9,21.1,12.16,28.08-3,.36-5.56-1.45-7.6-3.67-.43.44.27,1.29.35,1.7a9.84,9.84,0,0,0-3,.2c6.2,6.46,7.85,13.13,12.06,20.6,1.11,2,3.25,3.35,4.36,5.29a15.58,15.58,0,0,1,1.11,3.89,6.76,6.76,0,0,0,2.14,3.29,26.81,26.81,0,0,1,4.7,6.88,66.21,66.21,0,0,0,5.19,8.49c4.65,6.36,11.53,10.56,17.09,16,1.76,1.71,3.37,3.56,5.19,5.22,2.63,2.38,5.33,5,6.19,8.5a12.49,12.49,0,0,0-.62-4.84C997.35,628.38,996.32,627.37,995.89,626Z" transform="translate(0 -380.51)"/><path class="cls-2" d="M132.22,635.75c3.4,0,6.8-3.4,5.1-6.8-5.1-5.1-6.8-11.89-3.4-17,2.79-5.57,9.12-9.12,13.74-13.68,0-2.56.73-3.94,2.06-6.22,2.49-4.24-.18-3.47-1.75-7.46a16.68,16.68,0,0,1-.93-4.78c.87-3.33,4.14-4.67,4.57-8.45a54.4,54.4,0,0,0,0-8.21c-.16.22-.33.43-.49.63.35-1.2.07-2.46-1.25-4-1.86-2.13-3.74-4.28-5.73-6.23a15.21,15.21,0,0,1-3.41-4.41c-.54-1.15-.69-4.11-1.48-3.64-1.52,2.37-1.26,3.32-.57,6a29.56,29.56,0,0,0,1.09,3.59c.27.69,1.62,2.59,1.55,3.25C141,561,135,561.74,134.07,565a43.87,43.87,0,0,1-9.56,17.71c-2,2.13-3.56,4.38-6.16,5.48-2.12.9-5.32,1.73-6.46,3.86,3-.14,6.11-3,9-3.63,1.9-.4,3.07,1.37,4.67,1.55-.2.18-.39.37-.6.55-3.69,3.22-8,11-12.77,12.45-2.5.77-4.08-1.08-6.51.81S102,609,99.29,611c-2.36,1.73-5,2.87-7.33,4.65-2.56,2-4.24,4.54-6.48,6.82-4,4.07-7.34,8.75-11.26,12.81,4.58-4.25,10-7.68,14.28-12.33a37,37,0,0,1,8.85-6.82c1.64-1,6.17-7.2,7.72-7.11,5.22.3-.68,7.07-2,8.19-2,1.73-4.81,2.26-6.84,3.87-3.77,3-5.82,8.62-8.15,12.67,3.25-3,6-6.87,9.81-9.28,2-1.26,3.33-1.61,4.88-3.71,3.66.51,2.35,6.46,2.22,9.29-.26,6,1.88,12.84,3.48,18.7,2,7.17-2.3,9.32-6.69,14.94-2.18,2.8-4,6.81-3.56,10.42,4.08-.63,6.15-7.11,9.71-9.25,2-1.22,7-3.19,9.21-2.5,5,1.56,8.87,12.63,15.17,9.11a16.17,16.17,0,0,0-.27-4.44c3.53-.69,7.08,3.53,9,6,2.58,3.3,3,3.91,6.91,5.27,2.48.85,3.1,1.4,5,1.06-5.68-6.62-11.71-13.23-15.67-19.84C133.92,652.74,137.32,645.94,132.22,635.75Z" transform="translate(0 -380.51)"/><path class="cls-2" d="M240,621.44c0-.09,0-.18,0-.27l-.39-1.06C239.82,620.69,240.06,621.54,240,621.44Z" transform="translate(0 -380.51)"/><path class="cls-2" d="M255.82,554.54c1.51-2,7.12-1.07,9.32-1.83-1.27-3.22-3.79-5.76-5-9.21-1-3-4.8-7.3-3.36-10.52,1.32.47,2.77.7,4,1.22-.4-1.55-1.65-2.35-2.26-3.56s-.85-2.66-1.51-3.92a30.34,30.34,0,0,1-3.77-13,21,21,0,0,1,2.44,2c1.1-2.35,2.35-3.59.3-5.51-1.11-1.05-3.06-1.77-4.24-2.91a23.92,23.92,0,0,1-3.82-4.75c-.81-1.45-.56-5-2.59-4.83.2,2.95,2,3.12.13,5.58-.81,1.09-1.37.78-1.46,2.09-.06.79.82,2.8,1,3.68.57,2.73.8,5.38,1.28,8.13.36,2.11,1.51,4.73.38,6.64-.9-2.32-2.27-4.56-4.85-5.29,2.17,5.82-10.27-1.07-11.75-2.73,1.68,3,5.48,6.24,7.92,8.68,1.57,1.58,3.17,3.3,4.59,4.95-3.68,5.69.38,12.05.74,18a44,44,0,0,1-.91,12,44.58,44.58,0,0,1-2.49,6.4c-1,2.48.07,2.72.1,5.13,0,3.08-1.93,4.28-4.81,4.36.05,1.86-1.13,2.76-2,4.15-2.08,3.34-1.23,4.91.72,8.06a60,60,0,0,1,3,5.72c1.17,2.5,0,5.08.43,7.71.37,2.13,1.11.8,2.06,2.52,1.17,2.12-1.77,5.09-1.5,7.41.31,2.66,2,4.45,2,7.3,0,1,0,2,0,2.93l.49,1.36c-.48-1.29,1.42-3.23,1.76-4.75,1.26-5.57,1.75-11.63,2.72-17.34.9-5.26-1.65-9.05-2-14.17-.2-3.36,3.79-11.23,7.15-5.9-.07-2.33,1.34-4.18,2.33-6.17,1.2-2.44,1.74-5.22,3.08-7.56,1.43-2.5,3.36-2.87,2.64-5.69C257.72,558.87,254.36,556.45,255.82,554.54Z" transform="translate(0 -380.51)"/><path class="cls-2" d="M239.52,619.74l.13.37C239.53,619.68,239.44,619.39,239.52,619.74Z" transform="translate(0 -380.51)"/><path class="cls-2" d="M210.82,521.34c-1.91-.4-1.73-.08-3.78-.56-1-.24-3.3,1.06-3.81.51.43,2.1.43,1.42-.61,3-.88,1.38-1.67,2.11-2.18,3.81-.84,2.79-1.09,9.26,0,11.46-.07-2.19.68-6.63,3.29-7.27,1-.24,1.87.54,3,.88,1.53.46,3,.65,4.36,1.2C209.69,530.11,205.27,525,210.82,521.34Z" transform="translate(0 -380.51)"/><path class="cls-2" d="M1071.11,538.57a9.24,9.24,0,0,0,4.21,2C1074.9,539.09,1072.15,538.94,1071.11,538.57Z" transform="translate(0 -380.51)"/><path class="cls-2" d="M1071.11,538.57l-.4-.37C1070.67,538.36,1070.83,538.47,1071.11,538.57Z" transform="translate(0 -380.51)"/><path class="cls-2" d="M1307.38,635.73c3.58-2.54,7.49-5.26,10.21-8.48-4.44-6.08-6.74-15.76-5.85-23.3,4.82,1.48,12.32,2,17.29,2.3a9.46,9.46,0,0,1,3.55-8.23c-5.61-9.18-16.8-13.15-24.72-19.61-6.33-5.16-9.6-20-17.75-21.85-1.39,1.13-1.67,2.32-2.71,6.39-.33-1.34-.41,1.75.46,3.48,4.27,5.35,3.7,6.69,4.55,13.4,1.06,8.46,2.16,11.91,5.95,19.34a85.6,85.6,0,0,1,6.55,16.39C1306.4,621.55,1303.68,631.07,1307.38,635.73Z" transform="translate(0 -380.51)"/><path class="cls-2" d="M1149.6,633.1l-.83-.84c-4.11,3.18-4,8.55-8.23,12.76,1.34,4.73,3.85,16.41,7.23,19.56.89-2.93.74-6.66,1.8-9.35.65-1.65,4-5.34,4.23-6.74C1154.52,643.08,1145.89,636.7,1149.6,633.1Z" transform="translate(0 -380.51)"/><path class="cls-2" d="M1170.48,624.75a3.71,3.71,0,0,0,.6,1.35C1171.41,625.38,1171.32,624.88,1170.48,624.75Z" transform="translate(0 -380.51)"/><path class="cls-2" d="M1163.76,638.94c.41,3.66,4.41,5.33,5.28,8.32,1.31,4.51-.66,11.35-2.61,15.63,6.55-7,7.06-17.82,13.32-25.62-1.58-3.57-6.89-8.33-8.67-11.17C1169.91,628.67,1163.25,634.32,1163.76,638.94Z" transform="translate(0 -380.51)"/><path class="cls-2" d="M1206.39,603l-17.53,4.18c-8.76,5,1.59,11.52,3.34,15.44,2.19,4.9,1.76,16.72-.1,21.87,4-3.76,6.7-7.4,7.62-12.67,1.12-6.36-2-6.89-3.59-11.05C1191.92,610.05,1200.08,609.77,1206.39,603Z" transform="translate(0 -380.51)"/><path class="cls-2" d="M1223.1,594.68l.25.29c-6.67.77.72,12,.58,16.83-.13,4.45-2.09,12.65-4.72,16.2,2.81-2,8-4.78,10-8s.24-8.59,2.24-11.92c3.08-5.13,6.52-2.74,10-5.87s2.55-4.74,4.14-9.82c-3.31-.25-10-2.31-12.1-2.2C1229.75,590.35,1226.77,592.86,1223.1,594.68Z" transform="translate(0 -380.51)"/><path class="cls-2" d="M1068.52,672.31s12-2.45,14.62-3.17c12.07-3.37,19.5-.67,32.08-.82,4.31,10.68,0,21.75-6.47,29.83,8.71-5.17,15.79-12.74,14.14-23.72-1.37-9.1-1.32-15.18-10.76-16.42,2.32-7.8,13.55-9.14,14.93-18.23L1080.94,663C1079.31,662.85,1068.52,672.31,1068.52,672.31Z" transform="translate(0 -380.51)"/><path class="cls-2" d="M889.88,725.8h-1.67A24.93,24.93,0,0,1,872.39,736c3,2,7.63,1.51,11.52,1.58.27,5.86-1.45,10.71-1.61,16.29,4.29-4.29,8.67-8.07,13-12.25,7.32-7,4.44-6.22,3.63-15.75A13.24,13.24,0,0,1,889.88,725.8Z" transform="translate(0 -380.51)"/><path class="cls-2" d="M959.82,705.56c-4.15,1.51-7.88,4.93-11.34,6.78a12.11,12.11,0,0,0,8.56,3c1.54,3.82,2.7,12,5.59,14.59,4.25,3.83,11.28-1.33,9.46,9.57,3.14-11.6,3.26-10.92-2.18-20.36C966.7,713.6,967.72,706.79,959.82,705.56Z" transform="translate(0 -380.51)"/><path class="cls-2" d="M1041,716.2c-3.63-5.66-1.07-3.19-2.4-9.12-1.66-7.46-4.62-12.21-13.71-11.3-.67-7.47-8.16-5.93-15.05-7.77a8,8,0,0,0-6,5.12c12,2,26.93,12.11,26.35,25.47,10,.58,9.78,1.82,16.37,7.94C1047.8,720.89,1043.55,720.15,1041,716.2Z" transform="translate(0 -380.51)"/><path class="cls-2" d="M1228.43,660.29c-.87-7.67-13.25-16.48-12.32-17-9.18,4.38.19,18.88-1.75,26.69-1.51,6.12-6,12.42-7.69,18.92a213.67,213.67,0,0,1-6.45,21.68c4.4-5.21,10.66-6.71,15.91-10.48,3.67-2.64,6.82-6.54,10.44-9.24-2.75.14-5.83-.46-8.59-.31C1218.67,679.61,1229.81,672.47,1228.43,660.29Z" transform="translate(0 -380.51)"/><path class="cls-2" d="M1344.88,668.75c-3.74-1.39-8.92.42-12.08-1.39-.1-.06-6.5-8.4-7-9.17-4.42-6.31-4.68-13.34-2.88-20.35-4.5,2.89-8.48,6-13.62,7.31-.08,1-.3,2.21-.31,3.2-1.47,1.88-.36-.85-.68-.71-1.86,4.08-6.34,12.12-6.16,16.22.36,7.69,8.07,9.93,12.49,15.42a31.29,31.29,0,0,1,6.79,16.63c.6,5.27-1.68,11.28.19,15.73,6.81-4.56,11.31-13,17.14-19.12-3,1.1-6.54,3.4-10.13,3.27-.55-4.54,2.74-8.53,1.66-13.09-.71-3-5.78-4-5.35-7.84C1325.64,668.4,1339.59,668.29,1344.88,668.75Z" transform="translate(0 -380.51)"/><path class="cls-2" d="M1126.86,540.81c.08.08.14.18.21.26C1127.23,540.81,1127.05,540.78,1126.86,540.81Z" transform="translate(0 -380.51)"/><path class="cls-2" d="M1125.69,551.09a8.2,8.2,0,0,0,.61,3c.76,2.06,2.32,3.82,3.13,5.87,1,2.53.64,5.85,1.94,8,.45-5.78,3.37-12.78,2.07-18.6-.56-2.55-1.77-2-3.45-3.84-1.2-1.29-1.73-3.12-2.92-4.46a4.45,4.45,0,0,1-.79.85c-.2,2.28,1.66,4.2,1.17,6.3C1127.2,549.29,1125.89,549.76,1125.69,551.09Z" transform="translate(0 -380.51)"/><path class="cls-2" d="M1186.76,603.56c-.78-2.46.23-4.24-.89-6.71-1.69-3.71-5.73-3.93-9.63-3.68-1.68.11-8,2-7.86-2,.07-1.92,3.64-2.68,4-4.57.14-.66-.84-2.27-.94-3.05-.31-2.64,2.47-6.35,4.8-7.56,2.56-1.33,8.92.08,11.11,1.7a22.13,22.13,0,0,0-3.87-5.11c-1.15-1.2-1.68-2.73-2.56-3.75a8.41,8.41,0,0,0-4.52-2.27c-3.24-.79-3.27-.92-5.45-3.49-1.7-2-4-2.88-4.3-2.22a9,9,0,0,1,2.83,4.31c-3.62,2.21-8.73,3.5-7.66,8.46.64,3,2.18,6.13,2.62,9,.81,5.17-4,4.58-7.76,4.87-5.56.42-12.46,4.86-17.72,3.15-2-.66-3.26-1.63-5.56-1.73a8.87,8.87,0,0,1-3.4-.5c-3.63-1.37-6.1-4.82-8.92-7.14.66,2.29,1.51,6.07-.83,7.64a6.89,6.89,0,0,0-3.35-1.87,81.08,81.08,0,0,1-8.25-9.9c-2.86-4.11-5.24-8.46-7.74-12.76a10.64,10.64,0,0,0,.56-1.38,30.58,30.58,0,0,0,1.59-9.1,41.64,41.64,0,0,1,.87-9.61c.57-2.47,1.17-4.4.59-6.9.42.14,1.25.06,1.66.22-1.16-5.3-9-5.76-10.57-10.28-.87,2.47,4.15,5.83,4.88,8.67.82,3.14.16,5.47-2.85,6.77,1.6,5.15,2.47,7.5-4.11,6.89a19,19,0,0,1-3.69-.73c-6.62-7-11-7.45-14.54-8.33a2.3,2.3,0,0,1-.31,1.63c-.65,0,2.22,2.31,1.61,2.41l2,1.63c4,6.79-1.19,7.57-6.56,9.33,3,8.66-3.2,12.85-3.32,21.42,8.63,2.1,14.26,15.89,17.81,23.08,5.81,11.76.55,26,4.78,37.82,1.14-7.72,11-12.78,10-20.59,8.11,0,18.57,7.74,23.17,13.94-2.44-17.45,26.52-2.4,29.21-9.45a8.53,8.53,0,0,0,4,.91c3.11-.56,6.24-5,8.68-6.93,3.89-3.08,9.52-3.75,14.09-5.31a22.84,22.84,0,0,0,5.14-2.44C1188.69,606,1187.71,606.56,1186.76,603.56Z" transform="translate(0 -380.51)"/><path class="cls-2" d="M501.67,586.2h-1.76c10.85-.27,12.51,26.18,14,36.33,3.92-14.3,2.86-34.61,14.58-44.84a26.83,26.83,0,0,1,15,7.94c-1.33-12-13.51-20.81-14.08-32.56C521.15,556.31,505.19,576.74,501.67,586.2Z" transform="translate(0 -380.51)"/><path class="cls-2" d="M710.6,639.07c-9-3.58-10.44-14.75-14-20.46-6.4-10.2-11-22.22-17.22-32.27-2.14,10.94,5.41,18.77,4.87,20.92,1.45,6.94-2.54,20.88-1.45,25,2,7.63,7.57,8.78,12,15.31,9.56,14.18,11.25,30.89,13.65,47,3.81-11.23-1.62-20.93.74-32.65,5.53-.26,8.25-.08,12,6.19,6.88-11.36,22.28,1.3,26.45,10.66-6.38-13.49-10.8-25.76-16.27-39.58C723.91,638.59,717.3,641.73,710.6,639.07Z" transform="translate(0 -380.51)"/><path class="cls-2" d="M89.15,570.4c-2.41,1.93-5.09.54-7.07,4.61-12.59-14.82-24.46,12.33-33.69.87-2,2.48-4.44,4.35-5.37,8.35a1,1,0,0,1-1.22-.85c-6.86,11.59,4.35,11.51-3.62,21.4,2.79-1.17.19-.36,5.64-5.08,2.11-1.83,4.09-2.75,5.64-4.51,3.1-3.53,3.81-3.25,7.33-4.09,8.59-2.06,5.85-6.34,10.16-9.45C76.18,575,75.55,585.88,89.15,570.4Z" transform="translate(0 -380.51)"/><path class="cls-2" d="M858.43,528.87c1.63,1.81,3.25,3.7,5,5.49a45.94,45.94,0,0,0,5.83,4.86A52.08,52.08,0,0,0,882.76,546a41.28,41.28,0,0,0,7.38,1.75A20.51,20.51,0,0,0,894,548c1.28-.06,2.52-.21,3.74-.34a24.84,24.84,0,0,1,7-.14,3.94,3.94,0,0,1,2.5,1.55,22.54,22.54,0,0,0,2.5,2.93,19.31,19.31,0,0,0,7,3.22,17.92,17.92,0,0,1,6.34,2.93c3.59,3,6,7.41,9.05,11.33a33.66,33.66,0,0,0,5.18,5.5,37.11,37.11,0,0,0,6.3,4.09c4.37,2.36,8.94,4.25,12.74,7.22a22,22,0,0,1,4.72,5.42c1.37,2,2.65,4.13,4,6.22a62.86,62.86,0,0,0,8.84,11.89c7,7.06,15.47,12.28,22,19.71-6.38-7.57-14.77-13.07-21.54-20.16a62.29,62.29,0,0,1-8.54-11.91c-1.26-2.11-2.5-4.24-3.86-6.32a23.07,23.07,0,0,0-4.84-5.75c-3.94-3.19-8.55-5.17-12.79-7.56a35.8,35.8,0,0,1-6-4,31.81,31.81,0,0,1-4.83-5.32c-2.91-3.86-5.24-8.34-9.23-11.78-4.18-3.48-9.86-3.31-13.22-6.23a23.11,23.11,0,0,1-2.23-2.72,7.08,7.08,0,0,0-1.59-1.47,6.37,6.37,0,0,0-2-.8,26.38,26.38,0,0,0-7.69,0c-1.23.12-2.44.25-3.61.3a19.12,19.12,0,0,1-3.48-.26,39.11,39.11,0,0,1-7-1.72,50.33,50.33,0,0,1-12.75-6.61,43.06,43.06,0,0,1-5.46-4.64c-1.67-1.71-3.24-3.58-4.89-5.44a47.75,47.75,0,0,0-5.36-5.38c-.52-.41-1.07-.84-1.56-1.17a11.86,11.86,0,0,0-1.76-1,14.91,14.91,0,0,0-3.86-1.26c-2.58-.49-5.05-.51-7.15-1.13-.25-.09-.46-.12-.76-.25a5.44,5.44,0,0,1-.71-.29c-.35-.22-.38-.22-.46-.47s-.08-.39-.19-.85a2.81,2.81,0,0,0-1-1.56,3.53,3.53,0,0,0-1.53-.6c-.24,0-.33,0-.5-.06h-.36l-.39,0a5.35,5.35,0,0,0-2.37.91,15.66,15.66,0,0,0-1.62,1.25c-1,.85-1.85,1.7-2.72,2.36a5.87,5.87,0,0,1-.63.43l-.29.17-.16.07s-.22.07-.35.1l-.09,0h-.08a1.17,1.17,0,0,1-.43-.07c-.74-.19-1.56-1.07-3.22-1.74a5.19,5.19,0,0,0-.73-.18,3.58,3.58,0,0,0-.78,0,6.81,6.81,0,0,0-1.23.25,9.63,9.63,0,0,0-2,.92,21.54,21.54,0,0,0-3.14,2.43,30,30,0,0,1-4.28,3.43c-2.91-5.33-6.71-9.89-9.59-14.8a43.68,43.68,0,0,1-2.11-4.08c-.64-1.42-1.22-2.86-1.81-4.34a41.34,41.34,0,0,0-2-4.52,17.78,17.78,0,0,0-2.18-3.16,6.51,6.51,0,0,0,1.92.1,15.51,15.51,0,0,0,4.62-1.38,52.46,52.46,0,0,0,8.23-4.91c2.62-1.81,5.12-3.78,7.6-5.75l3.73-2.9a36.6,36.6,0,0,1,3.84-2.56c2.69-1.62,5.45-3.19,8.15-4.94,1.35-.87,2.69-1.78,4-2.77a41.53,41.53,0,0,0,3.75-3.22c.55-.53,1.14-1.15,1.71-1.8s1.06-1.26,1.56-1.92c1-1.3,1.9-2.64,2.79-4,1.09-1.64,2.16-3.24,3.28-4.75l.09,2.72,2.45-1.34c3.66-2,7.44-3.91,11.08-6.18a56.18,56.18,0,0,0,8.94-6.79c.07.12.16.22.24.36a13,13,0,0,1,.85,2.09,18.12,18.12,0,0,0,2.25,5.15l1.19,1.66,1.35-1.52a34.94,34.94,0,0,1,6.7-5.5c2.17-1.42,4.44-2.74,6.74-4,.52.65,1.06,1.29,1.65,1.9a15.85,15.85,0,0,0,3,2.48,8.67,8.67,0,0,0,.9.5,7.56,7.56,0,0,0,1,.39,5.47,5.47,0,0,0,2.3.21,6.4,6.4,0,0,0,1.15-.36,4.49,4.49,0,0,0,1-.62l.37-.33.23.38,1.18,1.67a38.91,38.91,0,0,0,2.64,3.06c.45.51,1,.94,1.44,1.41s1,.9,1.49,1.33c1,.88,2,1.7,3.11,2.5,2.12,1.6,4.31,3.07,6.53,4.49s4.51,2.71,6.73,4.12a3.67,3.67,0,0,1-2.1.84,8.54,8.54,0,0,0-2.9.69,5.14,5.14,0,0,0-.69.45,4.8,4.8,0,0,0-.56.51,6.51,6.51,0,0,0-.89,1.23,21.76,21.76,0,0,0-1.77,5.42,21.42,21.42,0,0,1-1.62,5.34,21.61,21.61,0,0,0,2.12-5.2,21.8,21.8,0,0,1,2.06-5.09,5.22,5.22,0,0,1,.81-1,4.14,4.14,0,0,1,.51-.4,4.43,4.43,0,0,1,.51-.28,7.73,7.73,0,0,1,2.56-.4,5,5,0,0,0,3-1,5.32,5.32,0,0,0,1.09-1.19c.06-.08.1-.16.15-.24l.47.52c.45.43.93.83,1.39,1.24a24.11,24.11,0,0,0,3.08,2.08,62.39,62.39,0,0,0,6.54,3.08c1.09.46,2.15.93,3.19,1.42a29.81,29.81,0,0,1,2.94,1.66l1.32,1,1.17,1.1,1,1.22.85,1.35.71,1.14,1.13-.51a7.93,7.93,0,0,0,1.47-.82,6.71,6.71,0,0,0,1.24-1.2,9,9,0,0,0,1.42-2.83c.27-.88.49-1.71.72-2.47l.09.09c.66.62,1.34,1.19,2,1.73,1.37,1.07,2.75,2.07,4.15,3l4.16,2.81c.68.47,1.35.94,2,1.41a9.36,9.36,0,0,1,.85.71,2.39,2.39,0,0,1,.28.28s.06.08,0,0,0,0-.05-.1a.81.81,0,0,1-.06-.31l.61,1.15a51.1,51.1,0,0,0,9.47,5.81,100.9,100.9,0,0,1,9.3,5l1,.7c.35.27.74.54,1.06.8.63.5,1.28,1.05,1.91,1.64,1.26,1.16,2.46,2.43,3.66,3.73a74.75,74.75,0,0,0,7.75,7.77l1.93,1.57.53-2.33a6.31,6.31,0,0,1,.84-1.46l.31-.47c.4.28.8.56,1.22.81a25,25,0,0,0,3,1.49,37.29,37.29,0,0,0,6.18,2A45.24,45.24,0,0,0,1030,508a9,9,0,0,0,.58,1c.34.49.65,1,1,1.47a31.51,31.51,0,0,0,2.29,2.71,43.88,43.88,0,0,0,5.21,4.72c.93.71,1.87,1.4,2.86,2a26.9,26.9,0,0,0,3,1.73,12.14,12.14,0,0,0,1.6.71,10.76,10.76,0,0,0,1.66.55,10,10,0,0,0,1.71.36,4.69,4.69,0,0,0,.92.07c-.64.5-1.26,1-1.88,1.53-1.16,1-2.29,2-3.39,3a11.67,11.67,0,0,0-1.94-.39l-1.06-.12-.49,1.09a45,45,0,0,1-4.29,7.56,35.32,35.32,0,0,1-2.7,3.4,36.94,36.94,0,0,1-3,3.09,38.38,38.38,0,0,1-3.33,2.76,35.57,35.57,0,0,1-7.51,4.22,27.35,27.35,0,0,0-4.29,2.1,34.63,34.63,0,0,0-3.83,2.77q-1.8,1.49-3.45,3.1a85.76,85.76,0,0,0-6.25,6.7,138.85,138.85,0,0,0-10.88,14.59c4.07-4.49,8.16-8.93,12.41-13.18,1-1.06,2.15-2.08,3.23-3.12s2.18-2,3.32-3,2.28-1.89,3.45-2.76a32.74,32.74,0,0,1,3.6-2.41,24.94,24.94,0,0,1,3.9-1.73,32.08,32.08,0,0,0,4.31-2,43.47,43.47,0,0,0,4-2.51,42.37,42.37,0,0,0,3.68-3,37.5,37.5,0,0,0,3.28-3.39,40.33,40.33,0,0,0,2.89-3.73,44.37,44.37,0,0,0,2.46-4c.54-1,1-2.07,1.48-3.13a23.38,23.38,0,0,1,2.94.91c1.42.55,2.85,1.1,4.28,1.69,2.89,1.16,5.74,2.44,8.83,3.34a16.18,16.18,0,0,0,2.4.56,5.6,5.6,0,0,0,1.32.11h.57a3.43,3.43,0,0,1,.56,0,10.31,10.31,0,0,1,2,.43c.72.21,1.44.47,2.16.74,1.43.56,2.89,1.14,4.38,1.64a9.59,9.59,0,0,0,4.64.66,9.86,9.86,0,0,1-4.38-1.3c-1.39-.67-2.73-1.45-4.13-2.15-.71-.35-1.42-.7-2.17-1a11.29,11.29,0,0,0-2.44-.76,4.65,4.65,0,0,0-.61-.06l-.36,0-.24,0a4,4,0,0,1-1-.17,14.93,14.93,0,0,1-2.09-.68c-2.8-1.11-5.57-2.5-8.38-3.84-1.41-.67-2.83-1.35-4.3-2-.83-.32-1.64-.65-2.51-.93,1.1-.88,2.23-1.74,3.34-2.61a49.48,49.48,0,0,1,4.13-2.83,7.92,7.92,0,0,1,2.13-1,7.39,7.39,0,0,1,2.31-.07c3.23.34,6.4,1.53,9.84,2.12a68.24,68.24,0,0,0,10.28.22,50.7,50.7,0,0,1,9.83.33,14.32,14.32,0,0,1,8.12,4.08c1,1.1,2.08,2.44,3.23,3.77a12.88,12.88,0,0,0,4.42,3.61,14.17,14.17,0,0,0,5.64.6c1.69,0,3.34-.09,5-.09a28.25,28.25,0,0,1,4.72.32,8.23,8.23,0,0,1,3.8,1.78,23.26,23.26,0,0,1,3.28,3.3,8.84,8.84,0,0,1,.84,1.8,18.3,18.3,0,0,0,1.11,2.55,7.6,7.6,0,0,0,2.13,2.5l.29.19.49.27a7.13,7.13,0,0,0,.8.31,12.87,12.87,0,0,0,1.41.37,17.22,17.22,0,0,1,4.34,1.18,11.63,11.63,0,0,1,3,3,24.82,24.82,0,0,0,3.45,4.19,11.28,11.28,0,0,0,5.38,2.49,15.75,15.75,0,0,0,2.77.25,23.65,23.65,0,0,0,2.69-.13c3.48-.31,6.71-1,9.61-.49a9,9,0,0,1,2.07.62l.49.21s.33.19.48.27a6.06,6.06,0,0,1,.79.57c1.06.86,1.9,2.28,3.28,3.67a9.22,9.22,0,0,0,2.44,1.77,7.79,7.79,0,0,0,3.07.55c1.71,0,2.81.22,3.8,1.11l.91.82,1-.87a1.56,1.56,0,0,1,1-.41,5.49,5.49,0,0,1,1.68.29,12.8,12.8,0,0,1,1.84.76c.62.29,1.23.63,1.85,1,1.24.7,2.45,1.47,3.81,2.2a11.5,11.5,0,0,0,1.11.52l1,.38,2,.8a35.08,35.08,0,0,0,8.57,2.59,16.18,16.18,0,0,0,2.31.12,11.61,11.61,0,0,0,2.34-.35,6.43,6.43,0,0,0,1.12-.38,4.78,4.78,0,0,0,1.07-.51,7.63,7.63,0,0,0,1.48-1c2.5,1.76,5,3.51,7.44,5.36a72.37,72.37,0,0,1,7.36,6.3l0,0h0l.24,0a.16.16,0,0,0,.14-.1c0-.08,0-.13-.06-.15a2.5,2.5,0,0,0-.41-.25c-.17-.09-.34-.18-.5-.28-4.12-4.64-9.09-8.43-13.89-12.29l-.37-.3-.5.34a9.08,9.08,0,0,1-1.69,1.07,3.78,3.78,0,0,1-.91.37,5.23,5.23,0,0,1-1,.26,10,10,0,0,1-2,.19,15.5,15.5,0,0,1-2-.2,32.88,32.88,0,0,1-8-2.8l-2-.9c-.32-.14-.69-.28-1-.42s-.55-.28-.84-.44c-1.19-.68-2.41-1.51-3.68-2.28-.63-.38-1.28-.77-2-1.12a15.31,15.31,0,0,0-2.17-1,7.89,7.89,0,0,0-2.58-.5,4.51,4.51,0,0,0-1.85.46,6.72,6.72,0,0,0-1.87-.9,11.83,11.83,0,0,0-2.83-.42,5.62,5.62,0,0,1-1.88-.3,6.23,6.23,0,0,1-1.61-1.22c-1-1-1.87-2.56-3.39-3.91a10.9,10.9,0,0,0-1.25-.92c-.21-.12-.28-.18-.62-.35l-.65-.31a11.9,11.9,0,0,0-2.75-.88c-3.79-.73-7.31,0-10.51.3a21.19,21.19,0,0,1-2.36.1,11.94,11.94,0,0,1-2.26-.23,7.83,7.83,0,0,1-3.67-1.71c-2-1.73-3.4-5.46-7-7.67a17.61,17.61,0,0,0-5.35-1.55,4.88,4.88,0,0,1-1.72-.59,4.35,4.35,0,0,1-1.1-1.33,15.12,15.12,0,0,1-.91-2.09,11.41,11.41,0,0,0-1.38-2.72,27.41,27.41,0,0,0-3.86-3.83,11.71,11.71,0,0,0-5.28-2.41,29.13,29.13,0,0,0-5.35-.31c-1.72,0-3.44.1-5.11.18a11.87,11.87,0,0,1-4.36-.28,10.33,10.33,0,0,1-3.33-2.74c-1.08-1.19-2.11-2.51-3.44-3.83a17.11,17.11,0,0,0-9.75-4.58,49.74,49.74,0,0,0-10.35,0,68.81,68.81,0,0,1-9.91.22c-3.22-.43-6.52-1.4-10-1.6a8.42,8.42,0,0,0-2.71.27,8.84,8.84,0,0,0-2.36,1.26q-1.07.74-2.07,1.53a4.47,4.47,0,0,1-1-.16,10.35,10.35,0,0,1-1.64-.5,12.89,12.89,0,0,1-1.57-.69c-.51-.25-1-.52-1.5-.82a28.13,28.13,0,0,1-2.85-1.89c-.92-.68-1.79-1.42-2.65-2.17a42.1,42.1,0,0,1-4.71-4.92c-.72-.87-1.39-1.78-2-2.7-.33-.46-.59-.94-.88-1.41s-.5-1-.75-1.45l-.31-.58h-.64a40,40,0,0,1-6.08-.37,48.59,48.59,0,0,1-6-1.17,34.88,34.88,0,0,1-5.66-2,20.58,20.58,0,0,1-2.57-1.42,16.19,16.19,0,0,1-2.23-1.74l-1.88-1.7-.6,2.42a6.46,6.46,0,0,1-.85,1.41l-.21.31c-2-1.93-3.91-4.13-5.87-6.35-1.2-1.36-2.46-2.71-3.82-4-.68-.64-1.39-1.25-2.16-1.87-.37-.31-.72-.55-1.08-.83l-1.19-.82a103.07,103.07,0,0,0-9.59-5.25,51.66,51.66,0,0,1-8.57-5.12l0-.06a2.86,2.86,0,0,0-.35-.48,5.82,5.82,0,0,0-.6-.61c-.38-.35-.73-.62-1.09-.9-.71-.54-1.42-1-2.13-1.5l-4.19-2.8c-1.37-.93-2.75-1.84-4-2.82-.64-.48-1.26-1-1.83-1.49a8.17,8.17,0,0,1-1.36-1.51l-1.44-2.3-1.3,2.29a23.62,23.62,0,0,0-1.82,5.34,6.11,6.11,0,0,1-.87,1.92,4,4,0,0,1-.5.51l-.24-.36-1.3-1.46L947.62,470c-.53-.36-1-.74-1.58-1.08a28.94,28.94,0,0,0-3.31-1.72c-1.12-.49-2.25-.93-3.36-1.36a65.6,65.6,0,0,1-6.46-2.65,22.84,22.84,0,0,1-2.9-1.76l-1.31-1.06-1.2-1.18-.89-.88-.53,1.08a8.53,8.53,0,0,1-.57,1.13,4,4,0,0,1-.73.93l-.07.05c-4.17-3.2-8.55-6.14-12.47-9.58-1-.86-2-1.73-2.86-2.65-.46-.46-.92-.91-1.35-1.39s-.89-.94-1.29-1.44a35.47,35.47,0,0,1-2.35-3l-1-1.6-.88-1.67-.76-1.44-1.13,1.33-.48.56a4.22,4.22,0,0,1-.51.45c-.16.17-.37.18-.54.3a4.92,4.92,0,0,1-.55.14,3.22,3.22,0,0,1-1.23-.18,5.21,5.21,0,0,1-.65-.29,5.59,5.59,0,0,1-.65-.39,13.61,13.61,0,0,1-2.42-2.17,24.88,24.88,0,0,1-2.08-2.68l-.66-1-1.09.52a79.57,79.57,0,0,0-8.15,4.45,44.33,44.33,0,0,0-5.8,4.27c-.3-.77-.55-1.62-.84-2.54a14.88,14.88,0,0,0-1.08-2.68,8.72,8.72,0,0,0-.9-1.34,8.86,8.86,0,0,0-1.21-1.16l-1.16-.9-1.06,1.06a51.89,51.89,0,0,1-9.64,7.43C857,445.7,854,447.34,851,449a3.66,3.66,0,0,1-.22-1.07l.11-4.53-3.07,3.35a53.7,53.7,0,0,0-5.71,7.91c-.85,1.32-1.69,2.62-2.59,3.85-.45.62-.91,1.21-1.39,1.79s-1,1.1-1.52,1.68a39.69,39.69,0,0,1-3.39,3q-1.8,1.44-3.71,2.78c-2.56,1.78-5.23,3.44-7.9,5.19a32.89,32.89,0,0,0-3.93,2.87L814,479c-2.39,2.08-4.76,4.16-7.19,6.14a51.28,51.28,0,0,1-7.71,5.35,15.92,15.92,0,0,1-4.32,1.67,6.56,6.56,0,0,1-2.12.06c-.22-.25-.44-.49-.67-.72-1.25-1.28-2.59-2.21-3.73-3.19s-2.33-2.06-3.52-3.13S782.34,483,781,482a22.41,22.41,0,0,0-4.5-2.47,45.37,45.37,0,0,1-4.17-1.91,23.18,23.18,0,0,1-3.59-2.6,25.55,25.55,0,0,1-3.15-3.18,10.67,10.67,0,0,1-2-3.5l-.81-2.78-2,2.07c-1.44,1.5-2.69,2.91-4.06,4.28a35.87,35.87,0,0,1-4.21,3.7,8,8,0,0,1-2,1.06c-.08,0,0,.07-.2.07l-.26,0a3.93,3.93,0,0,1-.48-.47A23.1,23.1,0,0,1,747.9,474c-.54-.8-1.07-1.63-1.69-2.49-.17-.23-.3-.41-.53-.68l-.34-.39-.33-.33c-.4-.35-.8-.7-1.21-1l-2.33-1.79a14.41,14.41,0,0,1-1.91-1.83c-.29-.33-.57-.69-.82-1l-.83-1.19c-2.4-3.41-5.22-6.13-6.4-9.36l-.51-1.4-1.46.29a9.81,9.81,0,0,0-4.61,2.5,39.34,39.34,0,0,1-3.08,2.81,4.07,4.07,0,0,1-1.39.68,4.64,4.64,0,0,1-.58.12,4.72,4.72,0,0,1-.52,0H719a3.74,3.74,0,0,1-2.49-1.67,16.61,16.61,0,0,0-3.22-3.53,23.22,23.22,0,0,0-4.22-2.22,14.44,14.44,0,0,1-3.5-1.76,11,11,0,0,1-2.48-2.85c-1.56-2.35-3-4.86-4.35-7.39s-2.7-5.11-4-7.71c-2.58-5.18-5-10.44-7.43-15.72l-.15-.34-.27-.23-4.82-4.18-2.41-2.09-1.21-1c-.38-.34-.84-.71-1.15-1a24.55,24.55,0,0,1-3.68-4.69,58.22,58.22,0,0,1-3-5.38l-.08-.18-.1-.12c-2.15-2.7-4.36-5.3-6.66-7.86a99.32,99.32,0,0,0-7.3-7.36l-1.18-1.06-1,1.22a70.08,70.08,0,0,1-7.71,7.35c-1.37,1.19-2.76,2.39-4.12,3.64a50.86,50.86,0,0,0-4,4,25.71,25.71,0,0,0-2.78,5.05,9,9,0,0,1-1.23,2,4,4,0,0,1-1.71,1c-1.54.59-3.54.92-5.38,2.25-1.35,1-3,1.8-4.6,2.94a13.52,13.52,0,0,0-2.28,2,9.42,9.42,0,0,0-1,1.34c-.17.27-.25.45-.36.66l-.18.37-.14.35c-.72,1.8-1.26,3.53-1.79,5.31-.26.9-.5,1.76-.73,2.73a7.46,7.46,0,0,1-.74,2.21c-.35.68-.92,1.42-1.4,2.4a12,12,0,0,0-.9,2.93c-.37,1.9-.51,3.72-.79,5.45a10.53,10.53,0,0,1-1.57,4.56,28.55,28.55,0,0,1-3.52,3.84,18.11,18.11,0,0,0-2.93,3.7l-.33-.11a5,5,0,0,0-1.69-.09,5.64,5.64,0,0,0-3,1.3,16.83,16.83,0,0,0-3.42,4.42c-.89,1.52-1.68,3.07-2.54,4.46a29.77,29.77,0,0,1-3.19,3.8l-7.06,7.58q-1.77,1.9-3.47,3.89c-1.15,1.3-2.21,2.78-3.31,3.84-2.32,2.25-5.54,3.53-8.49,5.64a14.53,14.53,0,0,0-3.79,4,35.9,35.9,0,0,0-2.46,4.71c-.73,1.57-1.42,3.13-2.24,4.58-.19.36-.4.7-.61,1a6.46,6.46,0,0,0-1.27-2.47c-.85-1.08-1.85-2-2.62-3.15a64.62,64.62,0,0,1-3.9-7.2c-2.59-4.85-5.58-9.61-9.79-13.39l-.31-.28-.33.16a2.3,2.3,0,0,1-1.27-.6,19.61,19.61,0,0,1-1.5-1.3c-1-.94-2-1.93-3-2.87a11.93,11.93,0,0,0-3.72-2.43,4.28,4.28,0,0,0-2.57-.16,4.63,4.63,0,0,0-.82.36,12.68,12.68,0,0,0-1.09-2.49,25.51,25.51,0,0,0-2.35-3.39l-1-1.25-.71,1.42a7.94,7.94,0,0,1-1.79,1.89,8,8,0,0,0-2.19-2A25.45,25.45,0,0,0,515,456a11,11,0,0,1-3-1.7,6.43,6.43,0,0,1-1.76-2.63,18.07,18.07,0,0,1-.57-3.47,14,14,0,0,0-.91-4.13,6.38,6.38,0,0,0-1.41-1.94,20.33,20.33,0,0,0-1.56-1.34c-.51-.4-1-.78-1.44-1.16-.27-.23-.28-.27-.29-.3a5.26,5.26,0,0,1-.21-.64,5.54,5.54,0,0,0-1.09-2.31,3.84,3.84,0,0,0-.38-.34l-.19-.14a5.21,5.21,0,0,0-.66-.38,8.92,8.92,0,0,0-1.09-.42c-1.36-.42-2.72-.59-3.68-.89l-.07,0,0,0c-.08-.1-.23-.35-.48-.7a3.64,3.64,0,0,0-1.17-1.08,3,3,0,0,0-.86-.33,3.34,3.34,0,0,0-.85-.08,8.18,8.18,0,0,0-2.24.59,2.34,2.34,0,0,1-.54.12,1.75,1.75,0,0,1-.5-.1,5,5,0,0,1-.81-.25,5.14,5.14,0,0,1-.73-.3,11.43,11.43,0,0,1-1.48-.82,36.63,36.63,0,0,1-2.94-2.19,37.5,37.5,0,0,0-6.58-4.48l-1.09-.55-.8.93a31.13,31.13,0,0,1-3.88,3.73c-1.4,1.15-2.9,2.18-4.47,3.33a14.47,14.47,0,0,0-4.36,4.53,30.73,30.73,0,0,1-2.69,4.62,48,48,0,0,1-3.88,3.74c-.68.6-1.38,1.19-2.08,1.71a11.15,11.15,0,0,1-1,.68c-.05,0-.37.19-.55.28l-.48.21a11.23,11.23,0,0,1-2.4.54,11.84,11.84,0,0,0-3.16.85,14.66,14.66,0,0,0-4.95,4c-1.3,1.49-2.42,3-3.61,4.27a13.53,13.53,0,0,1-1.83,1.68c-.73.54-1.42,1-2.25,1.47a23.05,23.05,0,0,0-4.88,3.62,27.84,27.84,0,0,0-3.23,5.1,6.35,6.35,0,0,1-1.23,1.68,8.06,8.06,0,0,1-2.09.87c-1.61.46-3.54.63-5.56,1.25a12.15,12.15,0,0,0-3,1.32c-.88.57-1.6,1.06-2.45,1.7a10.75,10.75,0,0,0-2.34,2.33,6.17,6.17,0,0,0-.95,2c-.38,0-.76.07-1.13.13a18.13,18.13,0,0,0-2.44.61,17.35,17.35,0,0,0-4.42,2.24,19.13,19.13,0,0,0-5.67,6.33c-1.32-.32-2.64-.59-3.89-.85-.82-.17-1.62-.35-2.4-.57s-1.49-.45-2.32-.75a28,28,0,0,1-4.41-2,20.66,20.66,0,0,1-2-1.31c-.68-.5-1.22-1-2-1.58-.35-.26-.66-.51-1-.77s-.84-.53-1.27-.76a19,19,0,0,0-2.55-1.09,30.1,30.1,0,0,0-5.21-1.15c-1.71-.25-3.39-.44-5-.73-.8-.15-1.6-.33-2.37-.53a20.35,20.35,0,0,1-2.23-.81l-1-.44-.5.93a60.66,60.66,0,0,0-3.15,7.37,3.74,3.74,0,0,1-.86-.13,6.68,6.68,0,0,1-1.52-.71c-1-.62-2.08-1.45-3.36-2.11l-.94-.49-.42,1a6.34,6.34,0,0,1-2.88,3.07,37.81,37.81,0,0,1-4.43,1.85c-.79.31-1.55.67-2.28,1a18.23,18.23,0,0,0-2.31,1.14,4.84,4.84,0,0,0-1.82,2.19c-.36.81-.63,1.55-.92,2.38s-.48,1.64-.66,2.42l-.56,2.4a45.81,45.81,0,0,1-1.28,4.7,20.6,20.6,0,0,1-.9,2.22,9.45,9.45,0,0,1-1.24,2,5.09,5.09,0,0,1-1.76,1.41,6.64,6.64,0,0,1-1.08.3c-.37,0-.76,0-1.14,0h-.26l-.08.17a23.45,23.45,0,0,0-2.29,6.59,12.78,12.78,0,0,0-.15,3.49,9.77,9.77,0,0,0,.34,1.71c0,.07.06.14.08.2-1.92-.12-3.82-.48-5.77-.52a6.46,6.46,0,0,0-3.09.48,4.86,4.86,0,0,0-2.11,2.34c-.44,1-.67,2-1,2.87a10.29,10.29,0,0,1-1.48,2.51c-.95,1.29-2.15,2.42-3.09,3.87a33.73,33.73,0,0,0-6.41-5.19,75.51,75.51,0,0,0-8-4.3c-2.73-1.29-5.44-2.51-8.2-3.72s-5.61-2.24-8.37-3.36a69.21,69.21,0,0,1-8-3.7,32.75,32.75,0,0,1-3.6-2.35,21.38,21.38,0,0,1-3.1-2.82,12.3,12.3,0,0,1-1.29-1.61,16,16,0,0,1-1.16-1.78c-.76-1.27-1.53-2.58-2.35-3.88a35.56,35.56,0,0,0-2.73-3.84,9.47,9.47,0,0,0-4.38-3.24l-1.27-.41-.66,1.3a8.49,8.49,0,0,1-1.48,2.22,12.15,12.15,0,0,1-2.27,1.66c-1.11.74-1.84,1.43-2.65,2a7.41,7.41,0,0,1-1.06.67l-.18.08h-.14a2.42,2.42,0,0,0-.47-.55,2.56,2.56,0,0,0-1.1-.56,3.64,3.64,0,0,0-.44-.07h-.41a4.3,4.3,0,0,0-.46,0,6.21,6.21,0,0,0-.73.13,9.11,9.11,0,0,0-3.42,2c-.89.75-1.66,1.51-2.42,2.2-.37.33-.74.65-1.09.91s-.82.57-1.23.83a60.65,60.65,0,0,1-5.52,2.89,16.56,16.56,0,0,0-3.11,1.79,10.84,10.84,0,0,0-2.39,2.88,20.32,20.32,0,0,1-1.63,2.49c-.15.17-.29.34-.45.5l-.2.2-.3.26a6.39,6.39,0,0,1-1.05.71,17.06,17.06,0,0,1-5.57,1.74l-.36,0a2.64,2.64,0,0,0-1.15-.69,2.29,2.29,0,0,0-1.07,0l-.11,0H202l-.17.06-.1,0-.19.08c-.21.11-.45.25-.63.37l-.4.31c-.23.2-.47.4-.67.6-.43.41-.81.81-1.18,1.22l-2.15,2.39a14.3,14.3,0,0,1-1,1,14.86,14.86,0,0,0-1.28,1.18,6.54,6.54,0,0,0-1.17,1.64,4.45,4.45,0,0,0-.4,2.14,10,10,0,0,1,.07,2.9,7.81,7.81,0,0,1-1.13,2.57,12.3,12.3,0,0,1-1.87,2.28,45.84,45.84,0,0,1-4.89,3.92,27.52,27.52,0,0,0-4.93,4.31,57.25,57.25,0,0,0-3.71,5.32,25.35,25.35,0,0,1-3.07,3.84,7.78,7.78,0,0,1-.69-.56,9,9,0,0,0-1.21-1,11.94,11.94,0,0,0-1.32-.71c-.82-.39-1.59-.72-2.26-1.08a12.86,12.86,0,0,1-2-1.25,23.92,23.92,0,0,0-2.3-1.49c-3.17-1.8-6.37-2.94-8.93-4.75l-.92-.65-1.05.64a14.28,14.28,0,0,1-1.38.82,6.42,6.42,0,0,1-1.36.56,4.35,4.35,0,0,1-1.31.2,4.63,4.63,0,0,1-1.3-.18,14.06,14.06,0,0,1-2.91-1.35l-3.19-1.8-.93-.53-.87.62c-1.48,1-3.68,1.25-6.24,1.87a10.75,10.75,0,0,0-2,.72l-.52.28-.38.23-.84.55a30.94,30.94,0,0,0-2.94,2.36,34.29,34.29,0,0,1-5.38,4.26,27.14,27.14,0,0,1-6.18,2.53c-2.23.65-4.58,1.19-6.94,2a29.09,29.09,0,0,0-6.73,3.26,58,58,0,0,0-7.83,6.33A24.48,24.48,0,0,1,88.1,564c-1.73-1.15-3.39-2.4-5-3.69l-.57-.45-.53.66a7.49,7.49,0,0,1-2,1.87,7.67,7.67,0,0,1-2.59.9,30.72,30.72,0,0,1-6,0c-1.06,0-2.13-.11-3.24-.07-.57,0-1.1.07-1.73.13s-1.06.17-1.63.29c-2.16.49-4.12,1.24-6,1.55a8.51,8.51,0,0,1-2.6.08l-.59-.12-.68-.2c-.44-.14-.89-.31-1.34-.49a20.71,20.71,0,0,1-2.6-1.25l-.61-.37-.55-.38-.65-.48a3.54,3.54,0,0,0-1.31-.61,3.07,3.07,0,0,0-1.69.13,6.4,6.4,0,0,0-1,.43c-.3.16-.46.25-.81.46l-.66.43a16.57,16.57,0,0,0-2.65,2.31,26.32,26.32,0,0,1-4.19,4.07c-1.3.93-3.47,1.33-5.56,2.45a14.94,14.94,0,0,0-5.05,4.72c-2.63,3.67-4,7.57-6.54,10.57-1.35,1.62-2.67,3.07-4.13,4.56s-3,2.85-4.51,4.25c-3.09,2.76-6.34,5.39-9.52,8.12,3.57-2.18,7.1-4.43,10.5-6.91,1.71-1.23,3.35-2.54,5-3.92a51.72,51.72,0,0,0,4.6-4.4c3.07-3.28,4.8-7.31,7.15-10.34a11.9,11.9,0,0,1,4.09-3.66,21.81,21.81,0,0,1,2.69-1.09,14,14,0,0,0,3.19-1.46,28.16,28.16,0,0,0,4.85-4.53,15.11,15.11,0,0,1,2-1.84l.65-.42.55-.32a3,3,0,0,1,.36-.18c.16.1.42.27.64.44l.74.5.73.43a24.88,24.88,0,0,0,3,1.43c.53.2,1.06.37,1.62.53l.83.21c.32.07.63.11.95.16a11.07,11.07,0,0,0,3.62-.22c2.25-.48,4.19-1.29,6.08-1.81a13.75,13.75,0,0,1,1.43-.34,13.45,13.45,0,0,1,1.39-.18c1-.1,2-.1,3-.11a27.34,27.34,0,0,0,6.48-.49A9.59,9.59,0,0,0,81,563.91,7.57,7.57,0,0,0,82.85,562a50.9,50.9,0,0,0,4.82,2.76,21.39,21.39,0,0,0,5.52,1.91l-3.22,3c-1.72,1.64-3.44,3.24-5.25,4.72a34.28,34.28,0,0,1-5.66,3.91c-1.8.85-4.11.63-6.61.66a9.64,9.64,0,0,0-3.83.8c-.3.17-.59.29-.89.49s-.49.31-.75.52A13.17,13.17,0,0,0,65.52,582a66.14,66.14,0,0,0-4.47,5.69,14.29,14.29,0,0,1-2.4,2.45,4.79,4.79,0,0,1-.69.49,3.3,3.3,0,0,1-.71.31,7,7,0,0,1-1.65.29,11.15,11.15,0,0,0-1.84.26,4.77,4.77,0,0,0-1.7.89,18.62,18.62,0,0,0-2.48,2.65c-1.5,1.77-3.9,2.73-5.35,4.67,1.58-1.84,4-2.57,5.7-4.34A22.1,22.1,0,0,1,52.46,593a5.11,5.11,0,0,1,3.19-.84,7.79,7.79,0,0,0,1.88-.23,4.89,4.89,0,0,0,.95-.37,7.45,7.45,0,0,0,.79-.5A15.13,15.13,0,0,0,62,588.52a68.67,68.67,0,0,1,4.63-5.33,12.55,12.55,0,0,1,1.28-1,8.77,8.77,0,0,1,.75-.46c.19-.12.46-.22.69-.34a7.92,7.92,0,0,1,3.14-.52c2.22,0,4.86.5,7.51-.61a35.21,35.21,0,0,0,6.24-4c1.92-1.49,3.74-3.09,5.51-4.69s3.53-3.2,5.33-4.7a47.59,47.59,0,0,1,5.57-4.09,25.79,25.79,0,0,1,6.14-2.87c2.17-.7,4.49-1.19,6.85-1.84a30.16,30.16,0,0,0,7.05-2.79c.55-.34.95-.56,1.59-1s1-.76,1.53-1.16c1-.79,1.86-1.61,2.74-2.38,1.77-1.5,3.48-3,5.31-3.37s4-.61,6.2-1.68c0,.44.18.9.27,1.32a18,18,0,0,0,.83,2.33c.32.75.69,1.49,1.08,2.22a14.81,14.81,0,0,0,1.37,2.14,15.71,15.71,0,0,0,1.79,1.77,8.27,8.27,0,0,1,1.49,1.7c.51.72,1,1.31,1.5,2l1.51,1.91a19.18,19.18,0,0,1,1.43,1.89c.44.65.84,1.33,1.25,2l1.24,2.12c.42.69.92,1.45,1.4,2.11s.91,1.34,1.43,2a8.91,8.91,0,0,0,2.06,2.07,2.19,2.19,0,0,0,.6.29,3,3,0,0,0,.41.1l.15,0h.32l.17,0,.34-.07a3.16,3.16,0,0,0,.59-.24,4.16,4.16,0,0,0,1.18-1c.39,1,.8,1.92,1.24,2.87a19.49,19.49,0,0,0,7.53,9.13,23.77,23.77,0,0,1,2,1.71l1.91,2a9.5,9.5,0,0,1,2.89,5.19c.06.38.13.76.18,1.25a1.17,1.17,0,0,1,0,.4l-.05.64c0,.47-.1,1-.12,1.5a7.52,7.52,0,0,0,0,.94c0,.08,0,.2.05.31l0,.2a1.71,1.71,0,0,0,.13.38,2.81,2.81,0,0,0,.18.36l0,0c.33.45.1.14.19.25l.05.06.11.11a2.93,2.93,0,0,0,1.43.8,3,3,0,0,0,1.54-.1l.26-.08a3,3,0,0,0,1,.24,1.11,1.11,0,0,1,.11.2,2.72,2.72,0,0,1,.2.85c.09.73,0,1.67.11,2.77a7,7,0,0,0,.33,1.76,5,5,0,0,0,.44,1l.18.3a5.14,5.14,0,0,0,.35.47,6.44,6.44,0,0,0,1.43,1.21,4.24,4.24,0,0,1,.77.53,2.63,2.63,0,0,1,.27,1.64,9,9,0,0,1-.38,2.42,8.27,8.27,0,0,0-.34,1.65,4,4,0,0,0,.4,2,8.41,8.41,0,0,0,.91,1.46l.46.55c.18.23.34.39.51.59,1.36,1.45,2.79,2.62,3.8,4a6.59,6.59,0,0,1,.65,1c.08.18.14.3.22.5l.11.33,0,.09v0l0,.12a7.51,7.51,0,0,1-.1,2.46,5,5,0,0,0,2.13,5.64c.74.62,1.51,1.17,2.21,1.74a14.1,14.1,0,0,1,1.85,2,22.58,22.58,0,0,0,3.29,3.7c-.67.34-1.33.68-2,1-1.38.75-2.72,1.55-4.07,2.46s-2.52,1.78-3.76,2.75c-2.46,1.9-4.8,3.93-7.09,6-4.58,4.1-8.89,8.41-13.55,12.24-2.31,1.89-4.8,3.74-7.2,5.6l-7.3,5.52c-4.9,3.64-9.84,7.21-14.94,10.53a105.58,105.58,0,0,1-16,8.6,74.11,74.11,0,0,1-17.47,5.24,68.38,68.38,0,0,0,17.82-4.39,108.34,108.34,0,0,0,16.6-8c2.62-1.57,5.2-3.28,7.75-5s5.06-3.45,7.57-5.22l7.46-5.35c2.48-1.81,5-3.55,7.42-5.46,4.9-3.81,9.37-8,13.9-12.08,2.27-2,4.57-4,7-5.78,1.18-.9,2.38-1.76,3.66-2.62s2.49-1.55,3.79-2.25c2.64-1.4,5.41-2.63,8.19-4a57.61,57.61,0,0,0,8.23-4.59c2.65-1.87,4.92-3.89,7.26-5.9,2-1.73,3.91-3.49,5.85-5.26.48.31,1,.63,1.42.95a14.59,14.59,0,0,1,2.13,1.77l1.4,1.49,1.25-1.58c3.1-3.93,6.55-7.77,9.61-12,.77-1,1.5-2.13,2.22-3.24s1.37-2.25,2-3.42,1.17-2.4,1.67-3.66l.66-1.91.52-2,0-.11v-.16a40.06,40.06,0,0,1,.53-5.51,28.15,28.15,0,0,1,1.42-4.6l.22-.13a5,5,0,0,0,.73-.58,7.6,7.6,0,0,0,1-1.22,6.44,6.44,0,0,0,1.18-3.11l0,.17a18.12,18.12,0,0,1,1.44-5.38c.77-1.61,2.15-2.93,3.35-4.95a43.38,43.38,0,0,0,2.51-5.74c.37-.93.74-1.83,1.16-2.66.22-.43.43-.79.66-1.15a11.09,11.09,0,0,1,.83-1.09,25.06,25.06,0,0,1,4.41-3.67l5-3.37a35.67,35.67,0,0,0,4.87-3.87,55,55,0,0,1,4.56-3.83,41.3,41.3,0,0,1,5-3.18c1.72-.9,3.65-1.5,5.53-2.5s3.8-2.65,4.17-5c.42-2.11.27-4.17.91-5.87s2.23-3.17,3.4-4.87a11,11,0,0,0,1.47-2.77c.34-1,.53-2,.9-2.87a4.32,4.32,0,0,1,1.78-2.17,6.22,6.22,0,0,1,2.82-.58c1.92-.07,3.85.18,5.78.2a8.43,8.43,0,0,0,.59,1.38,8.46,8.46,0,0,1-.51-1.38h.2l-.2,0a2.18,2.18,0,0,1-.09-.23,10.89,10.89,0,0,1-.25-1.7,12.61,12.61,0,0,1,.32-3.41,24.32,24.32,0,0,1,2.43-6.18c.35,0,.71.06,1.07.07a7.16,7.16,0,0,0,1.29-.32,5.73,5.73,0,0,0,2.11-1.55A9.63,9.63,0,0,0,329,506a20.4,20.4,0,0,0,1-2.29c.6-1.56,1.05-3.16,1.49-4.75l.64-2.37a23.53,23.53,0,0,1,.72-2.3c.28-.72.6-1.51.94-2.18a3.16,3.16,0,0,1,1.31-1.51,18,18,0,0,1,2.14-.95c.78-.31,1.51-.63,2.26-.89a36.68,36.68,0,0,0,4.69-1.85,8.55,8.55,0,0,0,3.25-2.94c.75.5,1.51,1.08,2.38,1.63a8.9,8.9,0,0,0,2,1,5.37,5.37,0,0,0,2.4.21l.6-.08.23-.58c1-2.33,1.86-4.64,3-6.76.5.2,1,.42,1.5.58.86.25,1.73.46,2.59.64,1.73.35,3.43.58,5.08.86a27,27,0,0,1,4.73,1.15,15.61,15.61,0,0,1,2.12,1l.91.57c.32.22.66.52,1,.77.55.46,1.3,1.12,2,1.64a22.16,22.16,0,0,0,2.24,1.54,27.05,27.05,0,0,0,4.87,2.26c.78.29,1.69.61,2.53.85s1.73.44,2.58.62c1.69.37,3.31.68,4.87,1.14l1.24.36.57-1.19a15.94,15.94,0,0,1,5.3-6.17,12.48,12.48,0,0,1,7.54-2.41h1.65l0-1.59c0-1.18.89-2.29,2.28-3.33.67-.49,1.5-1.05,2.22-1.5a9,9,0,0,1,2.19-.95c1.59-.49,3.46-.65,5.48-1.18a11.12,11.12,0,0,0,3.1-1.32,5.83,5.83,0,0,0,1.38-1.41,14.74,14.74,0,0,0,.86-1.32,26.69,26.69,0,0,1,2.79-4.44,19.54,19.54,0,0,1,4.21-3c.79-.47,1.71-1,2.49-1.61a17.24,17.24,0,0,0,2.35-2.11c1.4-1.48,2.52-3,3.69-4.37a11.54,11.54,0,0,1,3.72-3.13,8.56,8.56,0,0,1,2.29-.61,13.56,13.56,0,0,0,3.09-.75c.26-.1.56-.24.81-.35s.35-.17.7-.38a13.56,13.56,0,0,0,1.34-.91c.8-.61,1.54-1.25,2.27-1.89a49.67,49.67,0,0,0,4.21-4.15,31.89,31.89,0,0,0,3-5.13,11.36,11.36,0,0,1,3.43-3.54c1.46-1.09,3.06-2.2,4.57-3.46a32.61,32.61,0,0,0,3.35-3.2,38.85,38.85,0,0,1,5.05,3.54,39.76,39.76,0,0,0,3.21,2.35,15.89,15.89,0,0,0,1.87,1,10.82,10.82,0,0,0,2.07.71,4.21,4.21,0,0,0,1.38.18,4.8,4.8,0,0,0,1.33-.27,8.68,8.68,0,0,1,1.42-.46c.07,0-.17,0,.1,0-.08,0,0,0,0,0s.09,0,.22.22.29.47.62.86a3,3,0,0,0,.7.63l.28.16.11,0,.23.1.15,0c1.48.43,2.67.55,3.76.87,1.25.47,1,.16,1.52,1.59a6.34,6.34,0,0,0,.45,1.15,3.6,3.6,0,0,0,1,1.11c.53.45,1.06.84,1.56,1.21a15.29,15.29,0,0,1,1.37,1.12,3.67,3.67,0,0,1,.87,1.11,11.7,11.7,0,0,1,.76,3.31,19.45,19.45,0,0,0,.8,4,9,9,0,0,0,2.54,3.58,13.18,13.18,0,0,0,3.66,2,24.25,24.25,0,0,1,3.34,1.46,5.7,5.7,0,0,1,2.2,2.29l.8,1.53,1-1.33c.49-.64,1.33-1.24,2.1-2.1a21.07,21.07,0,0,1,1.41,2,8.75,8.75,0,0,1,1.27,3.3l.27,2.23,1.4-1.73a2.6,2.6,0,0,1,1.18-.9,2.5,2.5,0,0,1,1.49.09,11,11,0,0,1,3.21,2c1,.85,2,1.79,3.08,2.72a21.08,21.08,0,0,0,1.68,1.35,5.32,5.32,0,0,0,1,.58,2.42,2.42,0,0,0,1.07.22c4,3.4,7.1,7.89,9.77,12.51a59.34,59.34,0,0,0,4.23,7.08c.86,1.11,1.91,2,2.8,3a6.37,6.37,0,0,1,1.37,2.41,21.07,21.07,0,0,1-2.28,2.93l-6.87,7.75c-1.18,1.32-2.18,2.74-3.25,4.06s-2.19,2.61-3.56,2.84a3.82,3.82,0,0,1-2.17-.33,11.2,11.2,0,0,1-2.17-1.16,18.53,18.53,0,0,1-3.5-3.52,25.22,25.22,0,0,0-1.81-1.94,7.66,7.66,0,0,0-1.07-.87,6.76,6.76,0,0,0-.66-.39,3.42,3.42,0,0,0-.69-.24,3.75,3.75,0,0,0-2.87.61,11.46,11.46,0,0,0-2.1,1.73c-2.48,2.56-4.23,5.49-6.55,8.09a22.46,22.46,0,0,0-2.67,4.53c-.72,1.59-1.27,3.24-1.94,4.81a16.21,16.21,0,0,1-2.62,4.33,32.06,32.06,0,0,1-3.8,3.43,41.74,41.74,0,0,0-7.17,7.5,58.33,58.33,0,0,0-5.26,8.92,58.72,58.72,0,0,1,5.45-8.78,41.74,41.74,0,0,1,7.28-7.27,30.2,30.2,0,0,0,3.94-3.41,16.66,16.66,0,0,0,2.79-4.45c.72-1.59,1.29-3.22,2-4.76a21.27,21.27,0,0,1,2.66-4.32c2.32-2.52,4.23-5.54,6.6-7.89a9.85,9.85,0,0,1,1.92-1.53,2.73,2.73,0,0,1,2-.46,14.78,14.78,0,0,0-.49,1.58,8.45,8.45,0,0,0,0,4.79,6.65,6.65,0,0,0,.28.69,3.53,3.53,0,0,0,.37.66,4.42,4.42,0,0,0,1.06,1.17c.7.54,1.13.7,1.51,1a4.71,4.71,0,0,1,1,1.11v4.34c0,.89-.88,2.22-1.9,3.33a31.72,31.72,0,0,1-3.57,3.22l-2,1.51c-.66.5-1.37,1-2,1.56-1.27,1-2.6,2-3.94,3-2.69,2-5.4,4-7.93,6.25a38,38,0,0,0-3.59,3.59,17.9,17.9,0,0,0-1.55,2,23.72,23.72,0,0,0-1.31,2.15,23.07,23.07,0,0,1,1.57-2c.55-.63,1.15-1.21,1.74-1.78a38.48,38.48,0,0,1,3.84-3.15c2.68-2,5.55-3.65,8.37-5.47,1.41-.91,2.83-1.81,4.23-2.8l4.12-2.86a33.62,33.62,0,0,0,4.06-3.31,13.64,13.64,0,0,0,1.67-2c.47.72.91,1.46,1.4,2.18a40.15,40.15,0,0,0,3.52,4.52,9,9,0,0,0,2.78,1.83c.43.19.79.36,1.1.53a9.09,9.09,0,0,1,1,.65c.36.26.71.53.86.67s.05,0,.15.37c.13.66.24,1.68.38,2.58.12.62.17.91.3,1.44a15.46,15.46,0,0,0,.49,1.54,16.12,16.12,0,0,0,1.35,2.73,32.63,32.63,0,0,0,3.49,4.56c1.21,1.39,2.41,2.71,3.45,4.08.26.35.51.69.74,1,.1.14.3.41.32.46l.34.59.34.59.23.52a8.51,8.51,0,0,1,.45,1.09c1.15,3.11,1.22,6.71,1.67,10.4a27.77,27.77,0,0,0,1.17,5.61,13.37,13.37,0,0,0,3,5.08c1.34,1.41,2.79,2.49,3.91,3.77a13.31,13.31,0,0,1,2.54,4.45c1.2,3.25,1.51,6.9,2.69,10.29a1.44,1.44,0,0,1-.55-.69,1.5,1.5,0,0,0,.66,1l.15.1,0-.19c-.72-3.56-.73-7.2-1.64-10.86a14,14,0,0,0-2.39-5.22c-1.19-1.55-2.6-2.77-3.67-4.08A12.09,12.09,0,0,1,564,573a24.88,24.88,0,0,1-.78-5.12c-.24-3.53-.22-7.34-1.45-11.16a10.32,10.32,0,0,0-.54-1.45l-.31-.73-.33-.6-.32-.6c-.2-.36-.29-.45-.44-.69a12.61,12.61,0,0,0-.83-1.19c-1.14-1.55-2.38-2.94-3.55-4.3a30.28,30.28,0,0,1-3.1-4.13,13.11,13.11,0,0,1-1.05-2.17,10.76,10.76,0,0,1-.35-1.05c-.1-.35-.21-1-.27-1.23-.16-.9-.23-1.7-.47-2.82a4,4,0,0,0-1.08-2,10.62,10.62,0,0,0-1.28-1,12.17,12.17,0,0,0-1.32-.86c-.48-.26-1-.47-1.35-.64a5.72,5.72,0,0,1-1.79-1.11,47.83,47.83,0,0,1-3.28-4c-1.05-1.43-2.06-2.92-3-4.42l-2.31-3.56.1-.17a3.13,3.13,0,0,0,.22-1.83,3.76,3.76,0,0,0-.45-1.22c-.21-.38-.43-.72-.6-1a4.45,4.45,0,0,1-.35-.67c0-.05-.19-.45-.16-.4a3.81,3.81,0,0,1-.15-.44,30.36,30.36,0,0,0-1.39-3.9,5.33,5.33,0,0,0-.45-.83,15.52,15.52,0,0,1,2.57,2.61,19,19,0,0,0,3.72,3.84,13.08,13.08,0,0,0,2.37,1.31,5.15,5.15,0,0,0,2.88.45,5.32,5.32,0,0,0,2.63-1.3,15.65,15.65,0,0,0,1.87-2c1.12-1.34,2.13-2.74,3.28-4l7-7.63a21.72,21.72,0,0,0,3.2-4.28c.89-1.55,1.62-3.14,2.35-4.7,1.45-3.12,3-6.07,5.72-7.88s6-3.18,8.77-5.72c1.38-1.34,2.33-2.7,3.49-4s2.29-2.55,3.46-3.81l7.14-7.5a30.46,30.46,0,0,0,3.48-4.09c1-1.53,1.77-3.06,2.64-4.51a14.42,14.42,0,0,1,2.9-3.72,2.94,2.94,0,0,1,3.48-.35l1.17.59.55-1.19a13.4,13.4,0,0,1,3-3.95,30.75,30.75,0,0,0,3.87-4.17,10.4,10.4,0,0,0,1.38-2.77,20.42,20.42,0,0,0,.67-2.84c.32-1.86.48-3.67.83-5.34a9.37,9.37,0,0,1,.7-2.26c.32-.66.87-1.37,1.38-2.29a10.33,10.33,0,0,0,1-2.92c.2-.8.45-1.69.71-2.53.52-1.7,1.09-3.43,1.74-5l.12-.28s.09-.16.12-.24a3.44,3.44,0,0,1,.3-.53,6.3,6.3,0,0,1,.64-.85,10.59,10.59,0,0,1,1.79-1.57c1.36-1,3-1.79,4.6-2.92,1.12-.86,2.82-1.2,4.67-1.85a6.87,6.87,0,0,0,2.94-1.78,11.56,11.56,0,0,0,1.68-2.62,23.77,23.77,0,0,1,2.45-4.48,46,46,0,0,1,3.69-3.7c1.31-1.21,2.68-2.38,4.06-3.56a89.09,89.09,0,0,0,7-6.45c2,1.92,4,4,5.92,6.07,2.21,2.48,4.37,5,6.42,7.62a59.82,59.82,0,0,0,3.09,5.54c.59.93,1.21,1.84,1.9,2.74a20.17,20.17,0,0,0,2.28,2.58c.45.44.83.74,1.23,1.1l1.21,1.05,2.4,2.1,4.54,4c2.34,5.23,4.75,10.4,7.28,15.54q1.93,3.93,4,7.82c1.39,2.59,2.83,5.16,4.49,7.67a14.16,14.16,0,0,0,3.23,3.68,17.77,17.77,0,0,0,4.25,2.22,19.77,19.77,0,0,1,3.5,1.82,14.18,14.18,0,0,1,2.58,2.95,9.52,9.52,0,0,0,1.93,1.85,6.41,6.41,0,0,0,2.75,1.07h.15l.16,0h.13l.28,0c.19,0,.33,0,.57,0a6.82,6.82,0,0,0,1.57-.23,7.69,7.69,0,0,0,2.51-1.2,41.26,41.26,0,0,0,3.4-3,7.56,7.56,0,0,1,1.67-1.2,25.43,25.43,0,0,0,2.55,3.92c1.24,1.62,2.53,3.09,3.58,4.6l.86,1.23c.34.45.67.87,1,1.28a17.81,17.81,0,0,0,2.35,2.25l2.37,1.8c.37.29.72.58,1.06.88l.19.19.14.17.38.49c.53.74,1.07,1.57,1.64,2.4a25.08,25.08,0,0,0,1.91,2.53,5.06,5.06,0,0,0,1.76,1.38l.21.08.1,0,0,0,.28.05h.19l.37,0a5.68,5.68,0,0,0,1.26-.14,10.58,10.58,0,0,0,3.21-1.6,37.21,37.21,0,0,0,4.66-4.1c.64-.64,1.26-1.31,1.88-2a8.65,8.65,0,0,1-.36,2.21c-.36,1.26-1,2.45-1.48,3.73a12.55,12.55,0,0,0-1,4.09c-.15,1.41.22,2.93.06,3.95a6,6,0,0,1-.58,1.62c-.13.25-.3.54-.47.84s-.33.51-.51.76c-.72,1-1.65,2-2.53,3.12a10.43,10.43,0,0,0-1.89,4c-.38,1.29-.75,2.56-1.18,3.8a20,20,0,0,1-3.49,6.63,12.24,12.24,0,0,1-2.68,2.37c-1,.71-2.16,1.18-3.51,2-2.83,1.92-3.93,5-5,7.27a17.1,17.1,0,0,1-1.88,3.2,23.83,23.83,0,0,1-2.43,2.86,45.8,45.8,0,0,1-6.12,4.75l-.42.28c-.12.08,0,0,0,0l-.14.07-.87.37-1,.45a5.71,5.71,0,0,0-1.26.77,2.34,2.34,0,0,0-.31.32l-.11.13,0,0c-.22.34-.09.15-.15.25l-.09.19a2.23,2.23,0,0,0-.13.39,2.62,2.62,0,0,0,.05,1.39,4.23,4.23,0,0,0,.47,1l-.24.53a9.54,9.54,0,0,1-1.81,3A18.36,18.36,0,0,1,717,541a28.43,28.43,0,0,1-6.7,3.54,20.45,20.45,0,0,1-3.74.7,14.56,14.56,0,0,0-2.19.5,9.63,9.63,0,0,0-1.15.47c-.23.1-.33.18-.49.26s-.37.23-.55.35c-2.51,1.91-3.81,4.2-6,5.17a4.58,4.58,0,0,0-1.13.79,5.2,5.2,0,0,0-.77,1,7.11,7.11,0,0,0-.56,1.08,4.8,4.8,0,0,0-.28,1.26,17.43,17.43,0,0,0,0,2.13,5.16,5.16,0,0,1-.14,1.55c-.17.58-1.55.94-2.73.95a8,8,0,0,1-3.56-.63l-.7-.35-.26.64a8.07,8.07,0,0,0-.37,3.7,16.66,16.66,0,0,1,.13,3.36,6.17,6.17,0,0,1-.16.77,3.92,3.92,0,0,1-.32.74,4.3,4.3,0,0,1-1.1,1.2c-.44.36-.94.67-1.36,1.08a1.94,1.94,0,0,0-.23.27l-.12-.27-1.65,1.07a6.82,6.82,0,0,0-2.55,3,21,21,0,0,0-1,3.22,12.57,12.57,0,0,1-.39,1.3c-.09.2-.12.31-.24.55l-.18.35-.14.25a26.79,26.79,0,0,1-1.64,2.39c-1.21,1.58-2.55,3.12-3.9,4.7l-2,2.35a21.84,21.84,0,0,1-2,2c-3,2.58-6.54,4.59-10,7.14-.88.65-1.68,1.34-2.46,2a10.08,10.08,0,0,1-2.18,1.46c-.63.19-.73.18-1.35-.29a10.75,10.75,0,0,1-1.63-2.08l-1-1.57L647,600.44a12.93,12.93,0,0,0-1.44,1.81c-.4.6-.77,1.19-1.13,1.78l-2.06,3.53c-1.36,2.34-2.71,4.65-4.22,6.83a24.15,24.15,0,0,1-5.11,5.72,8.14,8.14,0,0,1-1.52.89,4.74,4.74,0,0,1-1.57.38,3.88,3.88,0,0,1-1.54-.21c-.25-.1-.49-.23-.75-.34l-.71-.48-.94-.62-.62.79a27.93,27.93,0,0,0-3.36,6.3,29.32,29.32,0,0,1-1.47,3,11.54,11.54,0,0,1-.9,1.33c-.31.39-.69.84-1.06,1.24A52.89,52.89,0,0,1,608,640.67l-.61.38.27.61a23.27,23.27,0,0,0,3.07,4.74c1.12,1.44,2.25,2.85,3.25,4.32a20.1,20.1,0,0,1,1.32,2.28,8.75,8.75,0,0,1,.79,2.43,5,5,0,0,1,.08,1.2,6.15,6.15,0,0,1-.23,1.25,6,6,0,0,1-1.49,2c-1.27,1.25-2.72,2.32-4.14,3.5-.71.59-1.34,1.27-2,1.89l-2,1.91-7.76,7.66,8.11-7.3,2-1.83c.68-.61,1.31-1.25,2-1.8,1.41-1.1,2.93-2.13,4.3-3.39a6.86,6.86,0,0,0,1.8-2.3,6.75,6.75,0,0,0,.31-1.41,5.92,5.92,0,0,0,0-1.52,10,10,0,0,0-.79-2.76,21.66,21.66,0,0,0-1.33-2.47c-1-1.58-2.09-3-3.15-4.51a25.45,25.45,0,0,1-2.42-3.86,50.09,50.09,0,0,0,10.55-8c.42-.44.8-.86,1.2-1.35a12.26,12.26,0,0,0,1.06-1.51,29.67,29.67,0,0,0,1.65-3.15,33.87,33.87,0,0,1,2.58-4.91h0c.37.18.72.37,1.1.52a6.14,6.14,0,0,0,2.44.4,7.18,7.18,0,0,0,2.37-.52,11.14,11.14,0,0,0,2-1.11,26.61,26.61,0,0,0,5.82-6.2c1.63-2.25,3.06-4.59,4.47-6.91l2.11-3.45c.35-.55.71-1.08,1.07-1.6a9.49,9.49,0,0,0,1,1.12,4.54,4.54,0,0,0,2,1.07,4.19,4.19,0,0,0,2.36-.22,12.3,12.3,0,0,0,3-1.89c.84-.67,1.61-1.32,2.4-1.89,3.2-2.36,6.89-4.37,10.19-7.22a23.25,23.25,0,0,0,2.36-2.3l2-2.37c1.35-1.55,2.74-3.11,4.05-4.81a28.58,28.58,0,0,0,1.87-2.7c.08-.14.13-.19.24-.41l.18-.35c.12-.22.27-.59.39-.87.21-.56.38-1.12.52-1.64a23.21,23.21,0,0,1,.69-2.42c.45,1.42.87,2.91,1.33,4.39a28.12,28.12,0,0,0,3.22,7.37,11.62,11.62,0,0,0,1.38,1.71c.29.27.5.5.86.8l.38.29.51.34a23.33,23.33,0,0,0,3.71,1.77,27.12,27.12,0,0,1,3.23,1.46c.23.14.47.27.67.42s.24.16.29.21.27.21.34.28a14.59,14.59,0,0,1,1.16,1.18,35.58,35.58,0,0,0,2.74,2.87,8.62,8.62,0,0,0,2,1.33l.3.14.16.06.06,0,.11,0a4.67,4.67,0,0,0,.84.16,8.64,8.64,0,0,0,1.24,0c.62,0,1.29-.14,1.61-.16l.28.13c.17.1.39.22.61.37a17,17,0,0,1,2.59,2.23c.85.86,1.68,1.8,2.58,2.75a25.07,25.07,0,0,0,3,2.75,9.08,9.08,0,0,0,2,1.17,4.24,4.24,0,0,0,5.29-1.54c.07-.11.13-.22.19-.33.19.12.38.21.56.33a23.07,23.07,0,0,1,1.84,1.49,37,37,0,0,1,3.35,3.58c2.13,2.56,4.09,5.37,6.4,8.05a17.61,17.61,0,0,0,2,2,24.76,24.76,0,0,0,2.23,1.63,30.27,30.27,0,0,1,4,2.78l.2.18.07.06.1.12a4.46,4.46,0,0,1,.39.43,6.94,6.94,0,0,1,.61.85,17,17,0,0,1,1.09,2.09,40.66,40.66,0,0,0,2.31,4.79l.62,1,1.7-.7c.13-.06.23-.17.34-.23s.19-.11.33-.07a1.08,1.08,0,0,1,.45.05,1.86,1.86,0,0,1,.56.21,10.66,10.66,0,0,1,2.5,1.83c1.65,1.57,3.12,3.37,4.88,5.19,1,1,1.83,1.65,2.75,2.49l2.69,2.38,5.39,4.76,5.4,4.74c1.81,1.57,3.61,3.12,5.32,4.75a44.25,44.25,0,0,1,4.73,5.17c1.45,1.93,2.92,3.79,4.18,5.75a17.72,17.72,0,0,1,1.59,3,4.78,4.78,0,0,1,.35,1.45,3.14,3.14,0,0,1,0,.76.53.53,0,0,1,0,.26.31.31,0,0,1-.06.18c0,.09-.09.09-.22.16a3.18,3.18,0,0,1-.66.1,8.22,8.22,0,0,0-2,.21,3.09,3.09,0,0,0-1.89,1.44l-.08.13,0,0c0,.05,0-.09-.07.13v.05l-.08.21a3.22,3.22,0,0,0-.22,1.67,8.5,8.5,0,0,0,1.43,3.66,21.93,21.93,0,0,0,2.29,2.93,30.37,30.37,0,0,0,2.64,2.56,21.88,21.88,0,0,0,3,2.1c2.11,1.24,4.32,2.19,6.37,3.36a15.91,15.91,0,0,1,5.29,4.55c1.32,2,2.64,4,3.86,6a25.66,25.66,0,0,1,2.93,6.52,25.64,25.64,0,0,0-2.64-6.68c-1.14-2.13-2.34-4.18-3.63-6.24a16.56,16.56,0,0,0-5.36-4.94c-2.07-1.28-4.24-2.3-6.23-3.56a22.58,22.58,0,0,1-5.24-4.61,21.06,21.06,0,0,1-2-2.81,7.06,7.06,0,0,1-1.1-3c0-.27,0-.37,0-.56a2.88,2.88,0,0,1,.15-.4l.07-.18h0l.05-.06a1.33,1.33,0,0,1,.92-.66,8.05,8.05,0,0,1,1.6-.11,4.42,4.42,0,0,0,1.11-.16,2.14,2.14,0,0,0,1.2-.87,3.88,3.88,0,0,0,.46-2.28,6.84,6.84,0,0,0-.43-2,19.08,19.08,0,0,0-1.7-3.38c-1.29-2.11-2.76-4-4.15-6a45.92,45.92,0,0,0-4.85-5.54c-1.72-1.71-3.52-3.33-5.3-4.94l-5.3-4.86-5.29-4.87L765,645.31c-.84-.8-1.85-1.68-2.53-2.39-1.54-1.66-3.07-3.61-4.89-5.36a13.67,13.67,0,0,0-3.28-2.39,4.75,4.75,0,0,0-1.12-.41,4,4,0,0,0-1.33-.13,2.42,2.42,0,0,0-.87.15c-.5-1-1-2.07-1.46-3.21a18.78,18.78,0,0,0-1.28-2.47,11.76,11.76,0,0,0-.87-1.23,6.78,6.78,0,0,0-.47-.52l-.11-.12-.16-.17-.27-.25a33.52,33.52,0,0,0-4.38-3.12,20.47,20.47,0,0,1-1.91-1.4,16.15,16.15,0,0,1-1.61-1.67c-2.13-2.51-4.08-5.34-6.3-8a39.41,39.41,0,0,0-3.64-3.93,25.73,25.73,0,0,0-2.13-1.75,21.2,21.2,0,0,0-2.43-1.47l-1.54-.79-.74,1.71-.31.69c-.11.22-.24.38-.34.58s-.46.5-.6.5a1.47,1.47,0,0,1-.77-.12,5.9,5.9,0,0,1-1.23-.74,22.51,22.51,0,0,1-2.55-2.4c-.83-.88-1.67-1.85-2.59-2.8a20.87,20.87,0,0,0-3.12-2.71c-.3-.19-.63-.4-1-.6-.2-.11-.3-.14-.46-.22l-.11,0-.14-.06-.24-.08a2.25,2.25,0,0,0-.38-.07l-.26,0c-1,0-1.48.14-2,.16a3.48,3.48,0,0,1-.65,0h-.09l-.12,0h0l-.12-.07a5,5,0,0,1-1.15-.81c-.79-.71-1.59-1.65-2.47-2.61a19.75,19.75,0,0,0-1.52-1.49l-.39-.32c-.2-.16-.32-.23-.48-.35-.31-.22-.63-.4-.94-.58a30.37,30.37,0,0,0-3.67-1.64,19.48,19.48,0,0,1-3.13-1.45l-.28-.17-.37-.29-.53-.48a10.11,10.11,0,0,1-1-1.23,25,25,0,0,1-2.83-6.46c-.77-2.36-1.37-4.81-2.45-7.34l-.58-1.37a1.93,1.93,0,0,1,.3-.27c.44-.34,1-.59,1.46-.9a4.73,4.73,0,0,0,1.37-1.2,5.86,5.86,0,0,0,.43-.81,5.4,5.4,0,0,0,.27-.9,16.45,16.45,0,0,0,.19-3.54,8.36,8.36,0,0,1,.29-2.45,10,10,0,0,0,3.53.83,7.64,7.64,0,0,0,2.26-.18,3.27,3.27,0,0,0,2.22-1.53,6.07,6.07,0,0,0,.51-2.42,17.06,17.06,0,0,1,.15-1.9,4.11,4.11,0,0,1,1.09-1.93,1.9,1.9,0,0,1,.54-.32c2.89-1.26,4.59-3.85,6.46-5,.11-.06.24-.15.32-.18a3,3,0,0,1,.41-.2,6.16,6.16,0,0,1,.73-.25,14.15,14.15,0,0,1,1.76-.33,23.5,23.5,0,0,0,4.21-.68,31.85,31.85,0,0,0,7.65-3.76c.58-.37,1.18-.77,1.74-1.2a15.1,15.1,0,0,0,1.73-1.5,13.46,13.46,0,0,0,2.47-3.86l.42-.93,0-.11,0-.06v0l.11-.3,0-.07v0l0-.23a1.9,1.9,0,0,0,0-.75,3,3,0,0,0-.36-.87l.74-.33,1-.42.31-.15a3.39,3.39,0,0,0,.38-.23l.42-.29a42.56,42.56,0,0,0,6.59-5.18,26.27,26.27,0,0,0,2.77-3.31,19.7,19.7,0,0,0,2.17-3.78c.58-1.27,1.07-2.47,1.64-3.5a7.15,7.15,0,0,1,2.12-2.53c.89-.62,2.24-1.28,3.42-2.11a15.71,15.71,0,0,0,3.27-3.05,22.36,22.36,0,0,0,3.69-7.73c.39-1.33.71-2.65,1-4a8.4,8.4,0,0,1,1.33-3.35c.68-1,1.59-2.09,2.35-3.31.2-.31.37-.62.55-1s.3-.59.46-.95a6.92,6.92,0,0,0,.6-2.23,8.66,8.66,0,0,0-.21-2.19,13.91,13.91,0,0,1-.2-1.91,11.51,11.51,0,0,1,.57-3.79c.38-1.27.9-2.54,1.17-3.91a7.71,7.71,0,0,0,.09-2.75l.15-.16a18,18,0,0,0,1.55,2.2,29.45,29.45,0,0,0,3.57,3.58,26.58,26.58,0,0,0,4.13,3c1.53.84,3.07,1.43,4.49,2a19,19,0,0,1,3.85,2.08c1.21.91,2.36,1.91,3.54,3s2.35,2.14,3.61,3.2a46.09,46.09,0,0,1,3.53,3,14.74,14.74,0,0,1,2.59,3.43,41.22,41.22,0,0,1,1.88,4.17c.59,1.47,1.19,3,1.87,4.45a45.57,45.57,0,0,0,2.28,4.38c3.34,5.62,7.52,10.45,10.27,15.92l.63,1.24,1.26-.48c2.82-1.1,4.61-3.06,6.43-4.63a18.35,18.35,0,0,1,2.68-2.1c.82-.54,2-.91,2.21-.72.67.19,1.65,1.17,3.27,1.75a4.48,4.48,0,0,0,1.38.21l.37,0,.21,0h.06l.11,0a3.32,3.32,0,0,0,.54-.14,5.51,5.51,0,0,0,.69-.28l.51-.29a8.67,8.67,0,0,0,.89-.61c1.09-.84,2-1.72,2.86-2.49A5.68,5.68,0,0,1,835,516h.18c.13,0,.35,0,.42,0l.12,0c0,.15.1.51.23.92a3.33,3.33,0,0,0,.78,1.35,3.87,3.87,0,0,0,1.15.84,9.32,9.32,0,0,0,1,.41c.26.1.66.21,1,.31,2.66.73,5.19.7,7.44,1.12a12.14,12.14,0,0,1,6,2.84A46.46,46.46,0,0,1,858.43,528.87ZM1228.89,586a2.72,2.72,0,0,1,.37.27c0,.07,0,0,0,.05h-.19c-.17-.2-.36-.37-.54-.56C1228.64,585.85,1228.76,585.94,1228.89,586ZM181.83,600.18h0C181.74,600.15,181.78,600.17,181.83,600.18Zm54.86,24.47c-.4-.33-.8-.63-1.21-.93a32.89,32.89,0,0,0-2.77-1.8l-1.12-.66-1,.89c-2.22,2.07-4.47,4.13-6.74,6.15A88,88,0,0,1,217,634c-4.15,2.94-9,4.93-13.84,7.36a28.65,28.65,0,0,1-2.85-4.06,14.12,14.12,0,0,0-1.77-2.3c-.69-.69-1.39-1.29-2-1.94a5.35,5.35,0,0,1-1.37-1.94,5.09,5.09,0,0,1,.15-2.42,8.93,8.93,0,0,0,.29-3.11l0-.22a.74.74,0,0,0,0-.15l0-.09-.09-.34c-.07-.24-.18-.56-.28-.81a9.47,9.47,0,0,0-.75-1.41,42.67,42.67,0,0,0-3.72-4.38c-.12-.17-.29-.35-.38-.49l-.41-.56a4.52,4.52,0,0,1-.53-.94,1.31,1.31,0,0,1-.12-.71,8.78,8.78,0,0,1,.31-1.08,11.46,11.46,0,0,0,.62-3.09,5.23,5.23,0,0,0-.87-3.72,5.84,5.84,0,0,0-1.44-1.19,3,3,0,0,1-.7-.61s-.13-.18-.07-.1l-.17-.3a1.1,1.1,0,0,1-.11-.32,3.91,3.91,0,0,1-.15-1c-.05-.77.06-1.71,0-2.85a6,6,0,0,0-.42-1.87,7.94,7.94,0,0,0-1-1.62,2.24,2.24,0,0,0-.41-.39A1.83,1.83,0,0,0,184,597a2,2,0,0,0-.65,0l-.12.05-.14-.06-.24-.08a2.71,2.71,0,0,0-1-.1c-.14,0-.22,0-.32.07,0-.33.05-.67.09-1l.08-.76c0-.15,0-.27,0-.56l0-.44c0-.43-.12-1-.21-1.53A14.75,14.75,0,0,0,181,591a13.25,13.25,0,0,0-3.39-5.36l-2-2a25.62,25.62,0,0,0-2.29-2,17.51,17.51,0,0,1-6.75-7.82c-.81-1.62-1.54-3.31-2.25-5l-.77-1.84-1.5,1.16a4.81,4.81,0,0,0-1.17,1.31l-.64,1a3,3,0,0,1-.28.35,8.73,8.73,0,0,1-1.22-1.22c-.5-.59-.95-1.21-1.48-1.89s-.93-1.21-1.4-1.89l-1.35-2c-.47-.68-1-1.37-1.47-2a22.31,22.31,0,0,0-1.64-1.88L149.76,558c-.53-.59-1.15-1.2-1.63-1.77a9.76,9.76,0,0,0-1.9-1.79A13.58,13.58,0,0,1,144.4,553a14.3,14.3,0,0,1-1.44-1.84c-.44-.67-.87-1.35-1.26-2.06a24,24,0,0,1-1.08-2.15,11.47,11.47,0,0,1-.43-1.29h0L142.5,547a17.54,17.54,0,0,0,3.67,1.68,8.16,8.16,0,0,0,2.28.33,7.7,7.7,0,0,0,2.27-.35,9.47,9.47,0,0,0,2-.82c.27-.13.52-.28.77-.43,2.8,1.72,5.72,2.83,8.21,4.25a18.84,18.84,0,0,1,2,1.29,17.72,17.72,0,0,0,2.37,1.49c.84.44,1.65.77,2.38,1.12a5.49,5.49,0,0,1,1.75,1.13,9.82,9.82,0,0,0,1.21,1,6.05,6.05,0,0,0,.78.41,3.9,3.9,0,0,0,1,.3,18.38,18.38,0,0,1,2.17.19,11.06,11.06,0,0,1,1.8,1.16c.63.48,1.26,1,1.85,1.55a9.5,9.5,0,0,1,2.7,3.54c.61,1.39,1.42,3.51,3.12,4.86a19.16,19.16,0,0,0,4.84,2.73,34.82,34.82,0,0,1,4.46,2.08,15.93,15.93,0,0,1,3.55,3.08c1.11,1.23,2.21,2.6,3.53,3.86a30.26,30.26,0,0,0,4.3,3.2l4.28,2.82c1.46.94,2.72,1.87,4.23,2.93a27.13,27.13,0,0,0,4.44,2.23c.36.71.71,1.18,1.07,1.77l1.32,2,2.71,3.84,5.52,7.59,5.54,7.56,2.77,3.78,1.37,1.9c.14.22.3.43.45.65C238.38,622.6,237.53,623.62,236.69,624.65Zm66.67-90.6c-.87,2.09-.77,4.21-1.23,6a5.82,5.82,0,0,1-3.55,3.8c-1.73.82-3.69,1.41-5.6,2.33a42.91,42.91,0,0,0-5.32,3.21,58.36,58.36,0,0,0-4.84,3.85,32.55,32.55,0,0,1-4.7,3.55L273,560.07a27.4,27.4,0,0,0-5,4,14.53,14.53,0,0,0-1.05,1.29,16.83,16.83,0,0,0-.89,1.46c-.52,1-.94,1.92-1.34,2.87a41.33,41.33,0,0,1-2.48,5.3c-.84,1.47-2.43,3-3.47,5.07a20.73,20.73,0,0,0-1.78,6.26l0,.09v.08a3.64,3.64,0,0,1-.67,1.53,4.4,4.4,0,0,1-.6.72,1.69,1.69,0,0,1-.26.21h0a.59.59,0,0,1,.24,0l-1.42,1a34.26,34.26,0,0,0-1.86,5.75,39.66,39.66,0,0,0-.63,5.8l-.45,1.63-.6,1.7c-.46,1.11-1,2.21-1.54,3.29s-1.22,2.13-1.89,3.17-1.39,2.06-2.13,3.06c-1.83,2.47-3.82,4.84-5.84,7.24-.13-.22-.27-.44-.39-.66l-1.24-2-2.53-4L230,607.08l-5.12-7.85-2.51-3.94-1.22-2a15.92,15.92,0,0,1-1-1.86l-.16-.41-.38-.17a25.7,25.7,0,0,1-4.34-2.35c-1.26-.95-2.72-2.1-4.1-3.07l-4.21-3a28.84,28.84,0,0,1-3.87-3c-1.13-1.14-2.14-2.46-3.3-3.81a18.26,18.26,0,0,0-4.09-3.71c-3.17-2-6.63-2.77-8.84-4.72-1-.85-1.5-2.06-2.21-3.79a11.71,11.71,0,0,0-1.45-2.55,18.52,18.52,0,0,0-1.93-2.07,26.67,26.67,0,0,0-2.05-1.78,13.13,13.13,0,0,0-2.51-1.62,9.78,9.78,0,0,0-2.91-.44.86.86,0,0,1-.19,0l-.26-.13a21.08,21.08,0,0,0,3.41-3.59,58,58,0,0,1,4-4.93c2.9-3,7-4.55,10.34-7.57a15.11,15.11,0,0,0,2.33-2.56A10,10,0,0,0,195,533a10.51,10.51,0,0,0,.13-3.48,2,2,0,0,1,.22-1,4,4,0,0,1,.73-.93,14.57,14.57,0,0,1,1.11-1c.52-.43.9-.82,1.3-1.21l2.22-2.31c.37-.36.74-.72,1.1-1,.18-.17.36-.31.53-.45l.18-.12a3,3,0,0,0,.51.42,2.17,2.17,0,0,0,.79.28,1.69,1.69,0,0,0,.55,0l.84-.1a20.2,20.2,0,0,0,6.65-2,11.27,11.27,0,0,0,1.63-1.06l.3-.26a4.72,4.72,0,0,0,.38-.36,8.18,8.18,0,0,0,.64-.68,23.2,23.2,0,0,0,2-2.82,8,8,0,0,1,1.69-2,14.1,14.1,0,0,1,2.48-1.36,61.7,61.7,0,0,0,5.86-3c.49-.3,1-.63,1.43-1s1-.75,1.38-1.12c.84-.75,1.6-1.48,2.35-2.11a6.29,6.29,0,0,1,2.06-1.26s0,0,0,0l.08.12a2.57,2.57,0,0,0,1,.82,3,3,0,0,0,1,.24,5.16,5.16,0,0,0,1.22-.09h.1l.12,0,.09,0,.35-.1a5.92,5.92,0,0,0,.56-.23,10.12,10.12,0,0,0,1.64-1c.92-.68,1.78-1.45,2.45-1.89a15.88,15.88,0,0,0,2.86-2.17,9.43,9.43,0,0,0,1.23-1.59,9.66,9.66,0,0,1,1.56,1.52,32.4,32.4,0,0,1,2.56,3.42c.81,1.21,1.58,2.47,2.38,3.76a22.57,22.57,0,0,0,2.9,3.81,24.19,24.19,0,0,0,3.61,3.12,35.92,35.92,0,0,0,4,2.41,69.24,69.24,0,0,0,8.44,3.54c2.84,1,5.72,1.9,8.48,2.93l8.38,3.19c5.31,2.07,10.53,4.51,14.91,8.24A8.91,8.91,0,0,0,303.36,534.05Zm193.3-99.89h0l-.1,0A.16.16,0,0,1,496.66,434.16Z" transform="translate(0 -380.51)"/><path class="cls-2" d="M255.42,588.92Z" transform="translate(0 -380.51)"/><path class="cls-2" d="M1362.46,622.41a6.87,6.87,0,0,0-2.72-2,7.17,7.17,0,0,1-2.62-2c-1.42-1.7-2.23-3.87-3.71-5.64l-4.18-5.32c-1.44-1.76-3-3.43-4.33-5.19a31,31,0,0,1-1.92-2.71c-.57-.94-1.07-1.94-1.6-2.94a19.39,19.39,0,0,0-1.85-3,8.25,8.25,0,0,0-1.28-1.33,1.07,1.07,0,0,0-.78-.2,2.91,2.91,0,0,0-.53.16,2.69,2.69,0,0,1-.68.19,2.64,2.64,0,0,1-2.57-.8,21.51,21.51,0,0,1-1.86-2.7,21.45,21.45,0,0,0-5-4.83c-1.87-1.34-3.83-2.5-5.78-3.65l-5.88-3.34c-1.93-1.13-3.88-2.23-5.68-3.51a20.21,20.21,0,0,1-4.7-4.28c-.28-.46-.64-1-.87-1.38a15.2,15.2,0,0,0-1-1.51,34.47,34.47,0,0,0-2.25-2.67,105.91,105.91,0,0,0-10.08-9.23l-.68-.56-.71.59-5.61,4.67c-1.88,1.53-3.78,3.08-5.69,4.48a18.59,18.59,0,0,1-3,1.67c-1.08.51-2.18,1-3.29,1.45a67,67,0,0,1-6.76,2.38,40.23,40.23,0,0,1-7,1.28,34,34,0,0,0-7.48,1.26,25,25,0,0,0-3.58,1.5c-.59.29-1.11.58-1.64.88s-1.1.66-1.65,1a43.15,43.15,0,0,0-6,4.66c-3.67,3.38-6.81,7.12-10.54,9.89a26.87,26.87,0,0,1-2.85,1.84c-.51.28-1.09.54-1.63.81l-1.65.78c-2.25,1.11-4.41,2.33-6.52,3.58s-4.19,2.5-6.29,3.64a51.34,51.34,0,0,1-6.41,3.06A23.55,23.55,0,0,1,1195,605a15.82,15.82,0,0,1-6.49-.91l-1.18-.43-.71,1c-1.73,2.44-4.55,4-7.61,5.19s-6.38,2.11-9.75,3.73c-6.52,3.3-11.12,8.79-16.51,12.48a21.7,21.7,0,0,1-8.72,3.77c-3.18.68-6.73.85-10.3,2.17a41.38,41.38,0,0,0-9.18,5.5,79.86,79.86,0,0,1-8.28,5.64c-6,3.11-12.17,6.18-18.3,9.17s-12.32,5.89-18.56,8.64-12.54,5.34-18.93,7.69a198.93,198.93,0,0,1-19.4,6.11l-5,1.18a23.6,23.6,0,0,1-4.79.58c-3.3.12-6.72-.21-10.32,0a29.35,29.35,0,0,0-5.34.8,18.14,18.14,0,0,0-5.09,2.17c-3,1.82-5.69,3.78-8.72,5-6,2.51-13,2.46-19.86,4.42s-12.69,6.08-18.41,9.71a74.34,74.34,0,0,1-8.77,5,53.16,53.16,0,0,1-9.57,3.17c-6.58,1.58-13.36,2.3-20.17,3.19-7.07.9-13.15,4.53-19.72,5.93-3.23.75-6.72.71-10.14,1.44a16.74,16.74,0,0,0-5,1.76,10.7,10.7,0,0,0-3.67,3.41,81.4,81.4,0,0,1-8.4-2c-1.45-.39-2.9-.77-4.38-1.06a19,19,0,0,0-4.52-.45c-3.1.18-5.84,1.69-8.38,3.22a63.07,63.07,0,0,1-7.75,4.48,62.37,62.37,0,0,0,7.88-4.26c2.57-1.46,5.33-2.84,8.27-2.93a32.37,32.37,0,0,1,8.69,1.68,75.9,75.9,0,0,0,8.72,2.29l.29,0,.16-.25c1.79-2.81,5-4.25,8.29-4.8s6.74-.51,10.21-1.23c6.86-1.35,13-4.8,19.66-5.49s13.64-1.43,20.41-3a55.21,55.21,0,0,0,9.94-3.15,76.84,76.84,0,0,0,9.16-5c5.83-3.6,11.49-7.47,17.88-9.18s13.43-1.61,20.21-4.26c3.39-1.27,6.33-3.36,9.18-5a15.56,15.56,0,0,1,4.32-1.83,27.73,27.73,0,0,1,4.81-.69c3.24-.2,6.66.14,10.21,0a27.6,27.6,0,0,0,5.38-.63l5-1.17a197.88,197.88,0,0,0,19.78-6.13c6.48-2.34,12.85-4.94,19.16-7.68s12.53-5.63,18.71-8.61,12.3-6,18.45-9.15a84.38,84.38,0,0,0,8.72-5.86c1.38-1,2.74-2,4.13-2.85a22.65,22.65,0,0,1,4.22-2.23c2.88-1.1,6.26-1.32,9.77-2a26.59,26.59,0,0,0,5.23-1.64,20.35,20.35,0,0,0,2.46-1.26c.71-.4,1.55-1,2.27-1.46,5.84-4.11,10.29-9.42,16.11-12.33,2.8-1.38,6.15-2.33,9.41-3.63a20.68,20.68,0,0,0,8.3-5.43,19.2,19.2,0,0,0,6.73.73,26.3,26.3,0,0,0,7.53-1.85,54.92,54.92,0,0,0,6.77-3.27c2.18-1.2,4.26-2.48,6.36-3.71s4.17-2.44,6.29-3.5l1.65-.78c.55-.28,1.09-.53,1.65-.83a29.06,29.06,0,0,0,3.29-2.13c4.11-3.1,7.26-6.93,10.75-10.16a40.49,40.49,0,0,1,5.5-4.42c.49-.3,1-.64,1.47-.92s1.07-.61,1.57-.86a21.91,21.91,0,0,1,3.15-1.37,31.41,31.41,0,0,1,6.91-1.23,41.67,41.67,0,0,0,7.39-1.47,68,68,0,0,0,7-2.56c1.14-.49,2.27-1,3.39-1.55a20.49,20.49,0,0,0,3.34-1.93c2-1.5,3.88-3.07,5.76-4.64l4.88-4.17a98,98,0,0,1,9.28,8.32c.75.8,1.49,1.62,2.14,2.47a11.44,11.44,0,0,1,.88,1.3c.34.56.63,1,1,1.45a21.6,21.6,0,0,0,5.27,4.75c1.9,1.31,3.89,2.41,5.87,3.52l6,3.21c2,1.09,3.9,2.19,5.72,3.44a19.72,19.72,0,0,1,4.78,4.4,22.61,22.61,0,0,0,2,2.81,3.85,3.85,0,0,0,1.69,1,4.33,4.33,0,0,0,1.92.06c.64-.09,1.45-.52,1.22-.36a7.93,7.93,0,0,1,1.06,1.09,18.22,18.22,0,0,1,1.79,2.74c.55,1,1.07,2,1.69,3a33.28,33.28,0,0,0,2,2.75c1.44,1.76,3,3.4,4.44,5.11l4.29,5.22c1.46,1.67,2.34,3.8,3.86,5.54,1.45,1.94,4.15,2,5.49,3.86s2.17,4,3.69,5.64C1364.53,626.44,1363.79,624.27,1362.46,622.41Z" transform="translate(0 -380.51)"/><path class="cls-2" d="M600.22,506.31a9.61,9.61,0,0,1,2.19,1.92,12,12,0,0,1,1.45,2.51l1.33,3.07c.52,1.18,1.06,2.06,1.45,3a19.93,19.93,0,0,1,1,3c.51,2.05.83,4.28,1.33,6.56a12.32,12.32,0,0,0,1.21,3.51,11.2,11.2,0,0,0,2.36,2.88c.86.8,1.72,1.49,2.46,2.24a13.68,13.68,0,0,1,1,1.15c.16.2.32.45.48.67s.29.44.43.66a34.9,34.9,0,0,1,2.76,6c.78,2.09,1.48,4.24,2.24,6.36-.84-4.42-1.57-8.9-3.55-13.15-.14-.27-.25-.51-.42-.81s-.27-.48-.44-.73a17.38,17.38,0,0,0-1.1-1.46c-.77-.91-1.62-1.71-2.34-2.49a10.31,10.31,0,0,1-1.74-2.45,9.55,9.55,0,0,1-.78-2.9c-.36-2.14-.51-4.39-1-6.73a22.37,22.37,0,0,0-1-3.45c-.43-1.15-1-2.23-1.36-3.12s-.78-2.06-1.25-3.16a14.88,14.88,0,0,0-1.9-3.32,13.18,13.18,0,0,0-2.83-2.55c-.39-.27-.73-.52-1.07-.78l.45-.49-.52-1a2.25,2.25,0,0,0-.66-.79,2.17,2.17,0,0,0-.6-.33,3.35,3.35,0,0,0-.76-.18,7.53,7.53,0,0,0-1-.06h-1l.13,0-2.07.52c-1.48,1.86-2.62,3.87-3.86,5.5a13.21,13.21,0,0,1-2,2.18,17.27,17.27,0,0,1-2.51,1.75l-2.89,1.69a14.49,14.49,0,0,0-3,2.25,11.25,11.25,0,0,0-2.15,3.17c-.52,1.15-.85,2.18-1.24,3.22q-1.15,3.12-2.46,6.14c-.45,1-.91,2-1.41,3s-1,1.94-1.61,2.85a24.58,24.58,0,0,1-1.84,2.69,22.59,22.59,0,0,1-2.17,2.42,16.67,16.67,0,0,1-2.56,2L564,540l-1.52.61a.69.69,0,0,1-.38-.85,1,1,0,0,0-.05.56.77.77,0,0,0,.39.46h0l1.66-.39c.53-.18,1.06-.4,1.59-.61a17.74,17.74,0,0,0,3-1.77,22.35,22.35,0,0,0,2.56-2.3,27.81,27.81,0,0,0,2.22-2.63A59.69,59.69,0,0,0,580,521.15c.46-1,.88-2.1,1.33-2.95a9,9,0,0,1,1.69-2.29c1.33-1.27,3.33-2.14,5.36-3.28a17.78,17.78,0,0,0,3-2A17,17,0,0,0,594,508c1.15-1.5,2.06-3,3-4.31l.29.31A16.21,16.21,0,0,0,600.22,506.31Z" transform="translate(0 -380.51)"/></svg>